<?xml version="1.0" encoding="utf-8" standalone="no"?>
<!DOCTYPE svg PUBLIC "-//W3C//DTD SVG 1.1//EN"
  "http://www.w3.org/Graphics/SVG/1.1/DTD/svg11.dtd">
<!-- Created with matplotlib (https://matplotlib.org/) -->
<svg height="262.19625pt" version="1.1" viewBox="0 0 392.14375 262.19625" width="392.14375pt" xmlns="http://www.w3.org/2000/svg" xmlns:xlink="http://www.w3.org/1999/xlink">
 <metadata>
  <rdf:RDF xmlns:cc="http://creativecommons.org/ns#" xmlns:dc="http://purl.org/dc/elements/1.1/" xmlns:rdf="http://www.w3.org/1999/02/22-rdf-syntax-ns#">
   <cc:Work>
    <dc:type rdf:resource="http://purl.org/dc/dcmitype/StillImage"/>
    <dc:date>2021-03-30T12:03:20.946908</dc:date>
    <dc:format>image/svg+xml</dc:format>
    <dc:creator>
     <cc:Agent>
      <dc:title>Matplotlib v3.3.3, https://matplotlib.org/</dc:title>
     </cc:Agent>
    </dc:creator>
   </cc:Work>
  </rdf:RDF>
 </metadata>
 <defs>
  <style type="text/css">*{stroke-linecap:butt;stroke-linejoin:round;}</style>
 </defs>
 <g id="figure_1">
  <g id="patch_1">
   <path d="M 0 262.19625 
L 392.14375 262.19625 
L 392.14375 0 
L 0 0 
z
" style="fill:none;"/>
  </g>
  <g id="axes_1">
   <g id="patch_2">
    <path d="M 50.14375 224.64 
L 384.94375 224.64 
L 384.94375 7.2 
L 50.14375 7.2 
z
" style="fill:#ffffff;"/>
   </g>
   <g id="PolyCollection_1">
    <path clip-path="url(#p6660ec6f45)" d="M 65.361932 224.639987 
L 65.361932 224.639987 
L 68.436312 224.639976 
L 71.510692 224.639958 
L 74.585072 224.639928 
L 77.659452 224.639876 
L 80.733833 224.639788 
L 83.808213 224.639644 
L 86.882593 224.639406 
L 89.956973 224.63902 
L 93.031353 224.6384 
L 96.105733 224.637413 
L 99.180114 224.635861 
L 102.254494 224.633444 
L 105.328874 224.629722 
L 108.403254 224.62405 
L 111.477634 224.615499 
L 114.552014 224.602745 
L 117.626395 224.583928 
L 120.700775 224.556463 
L 123.775155 224.51681 
L 126.849535 224.460178 
L 129.923915 224.380175 
L 132.998295 224.268391 
L 136.072676 224.113908 
L 139.147056 223.902767 
L 142.221436 223.617373 
L 145.295816 223.235898 
L 148.370196 222.73169 
L 151.444576 222.07275 
L 154.518957 221.221339 
L 157.593337 220.133774 
L 160.667717 218.760523 
L 163.742097 217.046652 
L 166.816477 214.932738 
L 169.890857 212.356302 
L 172.965238 209.253835 
L 176.039618 205.563421 
L 179.113998 201.227948 
L 182.188378 196.198837 
L 185.262758 190.440158 
L 188.337138 183.932942 
L 191.411519 176.679443 
L 194.485899 168.707068 
L 197.560279 160.071628 
L 200.634659 150.859608 
L 203.709039 141.189113 
L 206.783419 131.20925 
L 209.8578 121.097753 
L 212.93218 111.056771 
L 216.00656 101.306881 
L 219.08094 92.079513 
L 222.15532 83.608104 
L 225.2297 76.118449 
L 228.304081 69.818781 
L 231.378461 64.890185 
L 234.452841 61.477963 
L 237.527221 59.684518 
L 240.601601 59.564257 
L 243.675981 61.12084 
L 246.750362 64.307004 
L 249.824742 69.02694 
L 252.899122 75.14108 
L 255.973502 82.472953 
L 259.047882 90.817633 
L 262.122262 99.951228 
L 265.196643 109.640789 
L 268.271023 119.654033 
L 271.345403 129.768336 
L 274.419783 139.778508 
L 277.494163 149.503029 
L 280.568543 158.788515 
L 283.642924 167.512352 
L 286.717304 175.583564 
L 289.791684 182.942068 
L 292.866064 189.556581 
L 295.940444 195.421482 
L 299.014824 200.552966 
L 302.089205 204.984805 
L 305.163585 208.76403 
L 308.237965 211.946773 
L 311.312345 214.594474 
L 314.386725 216.770589 
L 317.461105 218.537882 
L 320.535486 219.956313 
L 323.609866 221.081524 
L 326.684246 221.963858 
L 329.758626 222.647846 
L 332.833006 223.172069 
L 335.907386 223.569326 
L 338.981767 223.867003 
L 342.056147 224.087583 
L 345.130527 224.249226 
L 348.204907 224.366377 
L 351.279287 224.450352 
L 354.353667 224.509889 
L 357.428048 224.551642 
L 360.502428 224.580605 
L 363.576808 224.60048 
L 366.651188 224.613971 
L 369.725568 224.62303 
L 369.725568 224.62303 
L 369.725568 224.64 
L 366.651188 224.64 
L 363.576808 224.64 
L 360.502428 224.64 
L 357.428048 224.64 
L 354.353667 224.64 
L 351.279287 224.64 
L 348.204907 224.64 
L 345.130527 224.64 
L 342.056147 224.64 
L 338.981767 224.64 
L 335.907386 224.64 
L 332.833006 224.64 
L 329.758626 224.64 
L 326.684246 224.64 
L 323.609866 224.64 
L 320.535486 224.64 
L 317.461105 224.64 
L 314.386725 224.64 
L 311.312345 224.64 
L 308.237965 224.64 
L 305.163585 224.64 
L 302.089205 224.64 
L 299.014824 224.64 
L 295.940444 224.64 
L 292.866064 224.64 
L 289.791684 224.64 
L 286.717304 224.64 
L 283.642924 224.64 
L 280.568543 224.64 
L 277.494163 224.64 
L 274.419783 224.64 
L 271.345403 224.64 
L 268.271023 224.64 
L 265.196643 224.64 
L 262.122262 224.64 
L 259.047882 224.64 
L 255.973502 224.64 
L 252.899122 224.64 
L 249.824742 224.64 
L 246.750362 224.64 
L 243.675981 224.64 
L 240.601601 224.64 
L 237.527221 224.64 
L 234.452841 224.64 
L 231.378461 224.64 
L 228.304081 224.64 
L 225.2297 224.64 
L 222.15532 224.64 
L 219.08094 224.64 
L 216.00656 224.64 
L 212.93218 224.64 
L 209.8578 224.64 
L 206.783419 224.64 
L 203.709039 224.64 
L 200.634659 224.64 
L 197.560279 224.64 
L 194.485899 224.64 
L 191.411519 224.64 
L 188.337138 224.64 
L 185.262758 224.64 
L 182.188378 224.64 
L 179.113998 224.64 
L 176.039618 224.64 
L 172.965238 224.64 
L 169.890857 224.64 
L 166.816477 224.64 
L 163.742097 224.64 
L 160.667717 224.64 
L 157.593337 224.64 
L 154.518957 224.64 
L 151.444576 224.64 
L 148.370196 224.64 
L 145.295816 224.64 
L 142.221436 224.64 
L 139.147056 224.64 
L 136.072676 224.64 
L 132.998295 224.64 
L 129.923915 224.64 
L 126.849535 224.64 
L 123.775155 224.64 
L 120.700775 224.64 
L 117.626395 224.64 
L 114.552014 224.64 
L 111.477634 224.64 
L 108.403254 224.64 
L 105.328874 224.64 
L 102.254494 224.64 
L 99.180114 224.64 
L 96.105733 224.64 
L 93.031353 224.64 
L 89.956973 224.64 
L 86.882593 224.64 
L 83.808213 224.64 
L 80.733833 224.64 
L 77.659452 224.64 
L 74.585072 224.64 
L 71.510692 224.64 
L 68.436312 224.64 
L 65.361932 224.64 
z
" style="fill:#ffc0cb;fill-opacity:0.2;"/>
   </g>
   <g id="PolyCollection_2">
    <path clip-path="url(#p6660ec6f45)" d="M 65.361932 224.62303 
L 65.361932 224.62303 
L 68.436312 224.613971 
L 71.510692 224.60048 
L 74.585072 224.580605 
L 77.659452 224.551642 
L 80.733833 224.509889 
L 83.808213 224.450352 
L 86.882593 224.366377 
L 89.956973 224.249226 
L 93.031353 224.087583 
L 96.105733 223.867003 
L 99.180114 223.569326 
L 102.254494 223.172069 
L 105.328874 222.647846 
L 108.403254 221.963858 
L 111.477634 221.081524 
L 114.552014 219.956313 
L 117.626395 218.537882 
L 120.700775 216.770589 
L 123.775155 214.594474 
L 126.849535 211.946773 
L 129.923915 208.76403 
L 132.998295 204.984805 
L 136.072676 200.552966 
L 139.147056 195.421482 
L 142.221436 189.556581 
L 145.295816 182.942068 
L 148.370196 175.583564 
L 151.444576 167.512352 
L 154.518957 158.788515 
L 157.593337 149.503029 
L 160.667717 139.778508 
L 163.742097 129.768336 
L 166.816477 119.654033 
L 169.890857 109.640789 
L 172.965238 99.951228 
L 176.039618 90.817633 
L 179.113998 82.472953 
L 182.188378 75.14108 
L 185.262758 69.02694 
L 188.337138 64.307004 
L 191.411519 61.12084 
L 194.485899 59.564257 
L 197.560279 59.684518 
L 200.634659 61.477963 
L 203.709039 64.890185 
L 206.783419 69.818781 
L 209.8578 76.118449 
L 212.93218 83.608104 
L 216.00656 92.079513 
L 219.08094 101.306881 
L 222.15532 111.056771 
L 225.2297 121.097753 
L 228.304081 131.20925 
L 231.378461 141.189113 
L 234.452841 150.859608 
L 237.527221 160.071628 
L 240.601601 168.707068 
L 243.675981 176.679443 
L 246.750362 183.932942 
L 249.824742 190.440158 
L 252.899122 196.198837 
L 255.973502 201.227948 
L 259.047882 205.563421 
L 262.122262 209.253835 
L 265.196643 212.356302 
L 268.271023 214.932738 
L 271.345403 217.046652 
L 274.419783 218.760523 
L 277.494163 220.133774 
L 280.568543 221.221339 
L 283.642924 222.07275 
L 286.717304 222.73169 
L 289.791684 223.235898 
L 292.866064 223.617373 
L 295.940444 223.902767 
L 299.014824 224.113908 
L 302.089205 224.268391 
L 305.163585 224.380175 
L 308.237965 224.460178 
L 311.312345 224.51681 
L 314.386725 224.556463 
L 317.461105 224.583928 
L 320.535486 224.602745 
L 323.609866 224.615499 
L 326.684246 224.62405 
L 329.758626 224.629722 
L 332.833006 224.633444 
L 335.907386 224.635861 
L 338.981767 224.637413 
L 342.056147 224.6384 
L 345.130527 224.63902 
L 348.204907 224.639406 
L 351.279287 224.639644 
L 354.353667 224.639788 
L 357.428048 224.639876 
L 360.502428 224.639928 
L 363.576808 224.639958 
L 366.651188 224.639976 
L 369.725568 224.639987 
L 369.725568 224.639987 
L 369.725568 224.64 
L 366.651188 224.64 
L 363.576808 224.64 
L 360.502428 224.64 
L 357.428048 224.64 
L 354.353667 224.64 
L 351.279287 224.64 
L 348.204907 224.64 
L 345.130527 224.64 
L 342.056147 224.64 
L 338.981767 224.64 
L 335.907386 224.64 
L 332.833006 224.64 
L 329.758626 224.64 
L 326.684246 224.64 
L 323.609866 224.64 
L 320.535486 224.64 
L 317.461105 224.64 
L 314.386725 224.64 
L 311.312345 224.64 
L 308.237965 224.64 
L 305.163585 224.64 
L 302.089205 224.64 
L 299.014824 224.64 
L 295.940444 224.64 
L 292.866064 224.64 
L 289.791684 224.64 
L 286.717304 224.64 
L 283.642924 224.64 
L 280.568543 224.64 
L 277.494163 224.64 
L 274.419783 224.64 
L 271.345403 224.64 
L 268.271023 224.64 
L 265.196643 224.64 
L 262.122262 224.64 
L 259.047882 224.64 
L 255.973502 224.64 
L 252.899122 224.64 
L 249.824742 224.64 
L 246.750362 224.64 
L 243.675981 224.64 
L 240.601601 224.64 
L 237.527221 224.64 
L 234.452841 224.64 
L 231.378461 224.64 
L 228.304081 224.64 
L 225.2297 224.64 
L 222.15532 224.64 
L 219.08094 224.64 
L 216.00656 224.64 
L 212.93218 224.64 
L 209.8578 224.64 
L 206.783419 224.64 
L 203.709039 224.64 
L 200.634659 224.64 
L 197.560279 224.64 
L 194.485899 224.64 
L 191.411519 224.64 
L 188.337138 224.64 
L 185.262758 224.64 
L 182.188378 224.64 
L 179.113998 224.64 
L 176.039618 224.64 
L 172.965238 224.64 
L 169.890857 224.64 
L 166.816477 224.64 
L 163.742097 224.64 
L 160.667717 224.64 
L 157.593337 224.64 
L 154.518957 224.64 
L 151.444576 224.64 
L 148.370196 224.64 
L 145.295816 224.64 
L 142.221436 224.64 
L 139.147056 224.64 
L 136.072676 224.64 
L 132.998295 224.64 
L 129.923915 224.64 
L 126.849535 224.64 
L 123.775155 224.64 
L 120.700775 224.64 
L 117.626395 224.64 
L 114.552014 224.64 
L 111.477634 224.64 
L 108.403254 224.64 
L 105.328874 224.64 
L 102.254494 224.64 
L 99.180114 224.64 
L 96.105733 224.64 
L 93.031353 224.64 
L 89.956973 224.64 
L 86.882593 224.64 
L 83.808213 224.64 
L 80.733833 224.64 
L 77.659452 224.64 
L 74.585072 224.64 
L 71.510692 224.64 
L 68.436312 224.64 
L 65.361932 224.64 
z
" style="fill:#add8e6;fill-opacity:0.2;"/>
   </g>
   <g id="matplotlib.axis_1">
    <g id="xtick_1">
     <g id="line2d_1">
      <defs>
       <path d="M 0 0 
L 0 3.5 
" id="m1d85357442" style="stroke:#000000;stroke-width:0.8;"/>
      </defs>
      <g>
       <use style="stroke:#000000;stroke-width:0.8;" x="65.361932" xlink:href="#m1d85357442" y="224.64"/>
      </g>
     </g>
     <g id="text_1">
      <!-- −5 -->
      <g transform="translate(57.990838 239.238438)scale(0.1 -0.1)">
       <defs>
        <path d="M 10.59375 35.5 
L 73.1875 35.5 
L 73.1875 27.203125 
L 10.59375 27.203125 
z
" id="DejaVuSans-8722"/>
        <path d="M 10.796875 72.90625 
L 49.515625 72.90625 
L 49.515625 64.59375 
L 19.828125 64.59375 
L 19.828125 46.734375 
Q 21.96875 47.46875 24.109375 47.828125 
Q 26.265625 48.1875 28.421875 48.1875 
Q 40.625 48.1875 47.75 41.5 
Q 54.890625 34.8125 54.890625 23.390625 
Q 54.890625 11.625 47.5625 5.09375 
Q 40.234375 -1.421875 26.90625 -1.421875 
Q 22.3125 -1.421875 17.546875 -0.640625 
Q 12.796875 0.140625 7.71875 1.703125 
L 7.71875 11.625 
Q 12.109375 9.234375 16.796875 8.0625 
Q 21.484375 6.890625 26.703125 6.890625 
Q 35.15625 6.890625 40.078125 11.328125 
Q 45.015625 15.765625 45.015625 23.390625 
Q 45.015625 31 40.078125 35.4375 
Q 35.15625 39.890625 26.703125 39.890625 
Q 22.75 39.890625 18.8125 39.015625 
Q 14.890625 38.140625 10.796875 36.28125 
z
" id="DejaVuSans-53"/>
       </defs>
       <use xlink:href="#DejaVuSans-8722"/>
       <use x="83.789062" xlink:href="#DejaVuSans-53"/>
      </g>
     </g>
    </g>
    <g id="xtick_2">
     <g id="line2d_2">
      <g>
       <use style="stroke:#000000;stroke-width:0.8;" x="108.842451" xlink:href="#m1d85357442" y="224.64"/>
      </g>
     </g>
     <g id="text_2">
      <!-- 0 -->
      <g transform="translate(105.661201 239.238438)scale(0.1 -0.1)">
       <defs>
        <path d="M 31.78125 66.40625 
Q 24.171875 66.40625 20.328125 58.90625 
Q 16.5 51.421875 16.5 36.375 
Q 16.5 21.390625 20.328125 13.890625 
Q 24.171875 6.390625 31.78125 6.390625 
Q 39.453125 6.390625 43.28125 13.890625 
Q 47.125 21.390625 47.125 36.375 
Q 47.125 51.421875 43.28125 58.90625 
Q 39.453125 66.40625 31.78125 66.40625 
z
M 31.78125 74.21875 
Q 44.046875 74.21875 50.515625 64.515625 
Q 56.984375 54.828125 56.984375 36.375 
Q 56.984375 17.96875 50.515625 8.265625 
Q 44.046875 -1.421875 31.78125 -1.421875 
Q 19.53125 -1.421875 13.0625 8.265625 
Q 6.59375 17.96875 6.59375 36.375 
Q 6.59375 54.828125 13.0625 64.515625 
Q 19.53125 74.21875 31.78125 74.21875 
z
" id="DejaVuSans-48"/>
       </defs>
       <use xlink:href="#DejaVuSans-48"/>
      </g>
     </g>
    </g>
    <g id="xtick_3">
     <g id="line2d_3">
      <g>
       <use style="stroke:#000000;stroke-width:0.8;" x="152.322971" xlink:href="#m1d85357442" y="224.64"/>
      </g>
     </g>
     <g id="text_3">
      <!-- 5 -->
      <g transform="translate(149.141721 239.238438)scale(0.1 -0.1)">
       <use xlink:href="#DejaVuSans-53"/>
      </g>
     </g>
    </g>
    <g id="xtick_4">
     <g id="line2d_4">
      <g>
       <use style="stroke:#000000;stroke-width:0.8;" x="195.80349" xlink:href="#m1d85357442" y="224.64"/>
      </g>
     </g>
     <g id="text_4">
      <!-- 10 -->
      <g transform="translate(189.44099 239.238438)scale(0.1 -0.1)">
       <defs>
        <path d="M 12.40625 8.296875 
L 28.515625 8.296875 
L 28.515625 63.921875 
L 10.984375 60.40625 
L 10.984375 69.390625 
L 28.421875 72.90625 
L 38.28125 72.90625 
L 38.28125 8.296875 
L 54.390625 8.296875 
L 54.390625 0 
L 12.40625 0 
z
" id="DejaVuSans-49"/>
       </defs>
       <use xlink:href="#DejaVuSans-49"/>
       <use x="63.623047" xlink:href="#DejaVuSans-48"/>
      </g>
     </g>
    </g>
    <g id="xtick_5">
     <g id="line2d_5">
      <g>
       <use style="stroke:#000000;stroke-width:0.8;" x="239.28401" xlink:href="#m1d85357442" y="224.64"/>
      </g>
     </g>
     <g id="text_5">
      <!-- 15 -->
      <g transform="translate(232.92151 239.238438)scale(0.1 -0.1)">
       <use xlink:href="#DejaVuSans-49"/>
       <use x="63.623047" xlink:href="#DejaVuSans-53"/>
      </g>
     </g>
    </g>
    <g id="xtick_6">
     <g id="line2d_6">
      <g>
       <use style="stroke:#000000;stroke-width:0.8;" x="282.764529" xlink:href="#m1d85357442" y="224.64"/>
      </g>
     </g>
     <g id="text_6">
      <!-- 20 -->
      <g transform="translate(276.402029 239.238438)scale(0.1 -0.1)">
       <defs>
        <path d="M 19.1875 8.296875 
L 53.609375 8.296875 
L 53.609375 0 
L 7.328125 0 
L 7.328125 8.296875 
Q 12.9375 14.109375 22.625 23.890625 
Q 32.328125 33.6875 34.8125 36.53125 
Q 39.546875 41.84375 41.421875 45.53125 
Q 43.3125 49.21875 43.3125 52.78125 
Q 43.3125 58.59375 39.234375 62.25 
Q 35.15625 65.921875 28.609375 65.921875 
Q 23.96875 65.921875 18.8125 64.3125 
Q 13.671875 62.703125 7.8125 59.421875 
L 7.8125 69.390625 
Q 13.765625 71.78125 18.9375 73 
Q 24.125 74.21875 28.421875 74.21875 
Q 39.75 74.21875 46.484375 68.546875 
Q 53.21875 62.890625 53.21875 53.421875 
Q 53.21875 48.921875 51.53125 44.890625 
Q 49.859375 40.875 45.40625 35.40625 
Q 44.1875 33.984375 37.640625 27.21875 
Q 31.109375 20.453125 19.1875 8.296875 
z
" id="DejaVuSans-50"/>
       </defs>
       <use xlink:href="#DejaVuSans-50"/>
       <use x="63.623047" xlink:href="#DejaVuSans-48"/>
      </g>
     </g>
    </g>
    <g id="xtick_7">
     <g id="line2d_7">
      <g>
       <use style="stroke:#000000;stroke-width:0.8;" x="326.245049" xlink:href="#m1d85357442" y="224.64"/>
      </g>
     </g>
     <g id="text_7">
      <!-- 25 -->
      <g transform="translate(319.882549 239.238438)scale(0.1 -0.1)">
       <use xlink:href="#DejaVuSans-50"/>
       <use x="63.623047" xlink:href="#DejaVuSans-53"/>
      </g>
     </g>
    </g>
    <g id="xtick_8">
     <g id="line2d_8">
      <g>
       <use style="stroke:#000000;stroke-width:0.8;" x="369.725568" xlink:href="#m1d85357442" y="224.64"/>
      </g>
     </g>
     <g id="text_8">
      <!-- 30 -->
      <g transform="translate(363.363068 239.238438)scale(0.1 -0.1)">
       <defs>
        <path d="M 40.578125 39.3125 
Q 47.65625 37.796875 51.625 33 
Q 55.609375 28.21875 55.609375 21.1875 
Q 55.609375 10.40625 48.1875 4.484375 
Q 40.765625 -1.421875 27.09375 -1.421875 
Q 22.515625 -1.421875 17.65625 -0.515625 
Q 12.796875 0.390625 7.625 2.203125 
L 7.625 11.71875 
Q 11.71875 9.328125 16.59375 8.109375 
Q 21.484375 6.890625 26.8125 6.890625 
Q 36.078125 6.890625 40.9375 10.546875 
Q 45.796875 14.203125 45.796875 21.1875 
Q 45.796875 27.640625 41.28125 31.265625 
Q 36.765625 34.90625 28.71875 34.90625 
L 20.21875 34.90625 
L 20.21875 43.015625 
L 29.109375 43.015625 
Q 36.375 43.015625 40.234375 45.921875 
Q 44.09375 48.828125 44.09375 54.296875 
Q 44.09375 59.90625 40.109375 62.90625 
Q 36.140625 65.921875 28.71875 65.921875 
Q 24.65625 65.921875 20.015625 65.03125 
Q 15.375 64.15625 9.8125 62.3125 
L 9.8125 71.09375 
Q 15.4375 72.65625 20.34375 73.4375 
Q 25.25 74.21875 29.59375 74.21875 
Q 40.828125 74.21875 47.359375 69.109375 
Q 53.90625 64.015625 53.90625 55.328125 
Q 53.90625 49.265625 50.4375 45.09375 
Q 46.96875 40.921875 40.578125 39.3125 
z
" id="DejaVuSans-51"/>
       </defs>
       <use xlink:href="#DejaVuSans-51"/>
       <use x="63.623047" xlink:href="#DejaVuSans-48"/>
      </g>
     </g>
    </g>
    <g id="text_9">
     <!-- Internal response -->
     <g transform="translate(173.976562 252.916563)scale(0.1 -0.1)">
      <defs>
       <path d="M 9.8125 72.90625 
L 19.671875 72.90625 
L 19.671875 0 
L 9.8125 0 
z
" id="DejaVuSans-73"/>
       <path d="M 54.890625 33.015625 
L 54.890625 0 
L 45.90625 0 
L 45.90625 32.71875 
Q 45.90625 40.484375 42.875 44.328125 
Q 39.84375 48.1875 33.796875 48.1875 
Q 26.515625 48.1875 22.3125 43.546875 
Q 18.109375 38.921875 18.109375 30.90625 
L 18.109375 0 
L 9.078125 0 
L 9.078125 54.6875 
L 18.109375 54.6875 
L 18.109375 46.1875 
Q 21.34375 51.125 25.703125 53.5625 
Q 30.078125 56 35.796875 56 
Q 45.21875 56 50.046875 50.171875 
Q 54.890625 44.34375 54.890625 33.015625 
z
" id="DejaVuSans-110"/>
       <path d="M 18.3125 70.21875 
L 18.3125 54.6875 
L 36.8125 54.6875 
L 36.8125 47.703125 
L 18.3125 47.703125 
L 18.3125 18.015625 
Q 18.3125 11.328125 20.140625 9.421875 
Q 21.96875 7.515625 27.59375 7.515625 
L 36.8125 7.515625 
L 36.8125 0 
L 27.59375 0 
Q 17.1875 0 13.234375 3.875 
Q 9.28125 7.765625 9.28125 18.015625 
L 9.28125 47.703125 
L 2.6875 47.703125 
L 2.6875 54.6875 
L 9.28125 54.6875 
L 9.28125 70.21875 
z
" id="DejaVuSans-116"/>
       <path d="M 56.203125 29.59375 
L 56.203125 25.203125 
L 14.890625 25.203125 
Q 15.484375 15.921875 20.484375 11.0625 
Q 25.484375 6.203125 34.421875 6.203125 
Q 39.59375 6.203125 44.453125 7.46875 
Q 49.3125 8.734375 54.109375 11.28125 
L 54.109375 2.78125 
Q 49.265625 0.734375 44.1875 -0.34375 
Q 39.109375 -1.421875 33.890625 -1.421875 
Q 20.796875 -1.421875 13.15625 6.1875 
Q 5.515625 13.8125 5.515625 26.8125 
Q 5.515625 40.234375 12.765625 48.109375 
Q 20.015625 56 32.328125 56 
Q 43.359375 56 49.78125 48.890625 
Q 56.203125 41.796875 56.203125 29.59375 
z
M 47.21875 32.234375 
Q 47.125 39.59375 43.09375 43.984375 
Q 39.0625 48.390625 32.421875 48.390625 
Q 24.90625 48.390625 20.390625 44.140625 
Q 15.875 39.890625 15.1875 32.171875 
z
" id="DejaVuSans-101"/>
       <path d="M 41.109375 46.296875 
Q 39.59375 47.171875 37.8125 47.578125 
Q 36.03125 48 33.890625 48 
Q 26.265625 48 22.1875 43.046875 
Q 18.109375 38.09375 18.109375 28.8125 
L 18.109375 0 
L 9.078125 0 
L 9.078125 54.6875 
L 18.109375 54.6875 
L 18.109375 46.1875 
Q 20.953125 51.171875 25.484375 53.578125 
Q 30.03125 56 36.53125 56 
Q 37.453125 56 38.578125 55.875 
Q 39.703125 55.765625 41.0625 55.515625 
z
" id="DejaVuSans-114"/>
       <path d="M 34.28125 27.484375 
Q 23.390625 27.484375 19.1875 25 
Q 14.984375 22.515625 14.984375 16.5 
Q 14.984375 11.71875 18.140625 8.90625 
Q 21.296875 6.109375 26.703125 6.109375 
Q 34.1875 6.109375 38.703125 11.40625 
Q 43.21875 16.703125 43.21875 25.484375 
L 43.21875 27.484375 
z
M 52.203125 31.203125 
L 52.203125 0 
L 43.21875 0 
L 43.21875 8.296875 
Q 40.140625 3.328125 35.546875 0.953125 
Q 30.953125 -1.421875 24.3125 -1.421875 
Q 15.921875 -1.421875 10.953125 3.296875 
Q 6 8.015625 6 15.921875 
Q 6 25.140625 12.171875 29.828125 
Q 18.359375 34.515625 30.609375 34.515625 
L 43.21875 34.515625 
L 43.21875 35.40625 
Q 43.21875 41.609375 39.140625 45 
Q 35.0625 48.390625 27.6875 48.390625 
Q 23 48.390625 18.546875 47.265625 
Q 14.109375 46.140625 10.015625 43.890625 
L 10.015625 52.203125 
Q 14.9375 54.109375 19.578125 55.046875 
Q 24.21875 56 28.609375 56 
Q 40.484375 56 46.34375 49.84375 
Q 52.203125 43.703125 52.203125 31.203125 
z
" id="DejaVuSans-97"/>
       <path d="M 9.421875 75.984375 
L 18.40625 75.984375 
L 18.40625 0 
L 9.421875 0 
z
" id="DejaVuSans-108"/>
       <path id="DejaVuSans-32"/>
       <path d="M 44.28125 53.078125 
L 44.28125 44.578125 
Q 40.484375 46.53125 36.375 47.5 
Q 32.28125 48.484375 27.875 48.484375 
Q 21.1875 48.484375 17.84375 46.4375 
Q 14.5 44.390625 14.5 40.28125 
Q 14.5 37.15625 16.890625 35.375 
Q 19.28125 33.59375 26.515625 31.984375 
L 29.59375 31.296875 
Q 39.15625 29.25 43.1875 25.515625 
Q 47.21875 21.78125 47.21875 15.09375 
Q 47.21875 7.46875 41.1875 3.015625 
Q 35.15625 -1.421875 24.609375 -1.421875 
Q 20.21875 -1.421875 15.453125 -0.5625 
Q 10.6875 0.296875 5.421875 2 
L 5.421875 11.28125 
Q 10.40625 8.6875 15.234375 7.390625 
Q 20.0625 6.109375 24.8125 6.109375 
Q 31.15625 6.109375 34.5625 8.28125 
Q 37.984375 10.453125 37.984375 14.40625 
Q 37.984375 18.0625 35.515625 20.015625 
Q 33.0625 21.96875 24.703125 23.78125 
L 21.578125 24.515625 
Q 13.234375 26.265625 9.515625 29.90625 
Q 5.8125 33.546875 5.8125 39.890625 
Q 5.8125 47.609375 11.28125 51.796875 
Q 16.75 56 26.8125 56 
Q 31.78125 56 36.171875 55.265625 
Q 40.578125 54.546875 44.28125 53.078125 
z
" id="DejaVuSans-115"/>
       <path d="M 18.109375 8.203125 
L 18.109375 -20.796875 
L 9.078125 -20.796875 
L 9.078125 54.6875 
L 18.109375 54.6875 
L 18.109375 46.390625 
Q 20.953125 51.265625 25.265625 53.625 
Q 29.59375 56 35.59375 56 
Q 45.5625 56 51.78125 48.09375 
Q 58.015625 40.1875 58.015625 27.296875 
Q 58.015625 14.40625 51.78125 6.484375 
Q 45.5625 -1.421875 35.59375 -1.421875 
Q 29.59375 -1.421875 25.265625 0.953125 
Q 20.953125 3.328125 18.109375 8.203125 
z
M 48.6875 27.296875 
Q 48.6875 37.203125 44.609375 42.84375 
Q 40.53125 48.484375 33.40625 48.484375 
Q 26.265625 48.484375 22.1875 42.84375 
Q 18.109375 37.203125 18.109375 27.296875 
Q 18.109375 17.390625 22.1875 11.75 
Q 26.265625 6.109375 33.40625 6.109375 
Q 40.53125 6.109375 44.609375 11.75 
Q 48.6875 17.390625 48.6875 27.296875 
z
" id="DejaVuSans-112"/>
       <path d="M 30.609375 48.390625 
Q 23.390625 48.390625 19.1875 42.75 
Q 14.984375 37.109375 14.984375 27.296875 
Q 14.984375 17.484375 19.15625 11.84375 
Q 23.34375 6.203125 30.609375 6.203125 
Q 37.796875 6.203125 41.984375 11.859375 
Q 46.1875 17.53125 46.1875 27.296875 
Q 46.1875 37.015625 41.984375 42.703125 
Q 37.796875 48.390625 30.609375 48.390625 
z
M 30.609375 56 
Q 42.328125 56 49.015625 48.375 
Q 55.71875 40.765625 55.71875 27.296875 
Q 55.71875 13.875 49.015625 6.21875 
Q 42.328125 -1.421875 30.609375 -1.421875 
Q 18.84375 -1.421875 12.171875 6.21875 
Q 5.515625 13.875 5.515625 27.296875 
Q 5.515625 40.765625 12.171875 48.375 
Q 18.84375 56 30.609375 56 
z
" id="DejaVuSans-111"/>
      </defs>
      <use xlink:href="#DejaVuSans-73"/>
      <use x="29.492188" xlink:href="#DejaVuSans-110"/>
      <use x="92.871094" xlink:href="#DejaVuSans-116"/>
      <use x="132.080078" xlink:href="#DejaVuSans-101"/>
      <use x="193.603516" xlink:href="#DejaVuSans-114"/>
      <use x="232.966797" xlink:href="#DejaVuSans-110"/>
      <use x="296.345703" xlink:href="#DejaVuSans-97"/>
      <use x="357.625" xlink:href="#DejaVuSans-108"/>
      <use x="385.408203" xlink:href="#DejaVuSans-32"/>
      <use x="417.195312" xlink:href="#DejaVuSans-114"/>
      <use x="456.058594" xlink:href="#DejaVuSans-101"/>
      <use x="517.582031" xlink:href="#DejaVuSans-115"/>
      <use x="569.681641" xlink:href="#DejaVuSans-112"/>
      <use x="633.158203" xlink:href="#DejaVuSans-111"/>
      <use x="694.339844" xlink:href="#DejaVuSans-110"/>
      <use x="757.71875" xlink:href="#DejaVuSans-115"/>
      <use x="809.818359" xlink:href="#DejaVuSans-101"/>
     </g>
    </g>
   </g>
   <g id="matplotlib.axis_2">
    <g id="ytick_1">
     <g id="line2d_9">
      <defs>
       <path d="M 0 0 
L -3.5 0 
" id="m0a604b1016" style="stroke:#000000;stroke-width:0.8;"/>
      </defs>
      <g>
       <use style="stroke:#000000;stroke-width:0.8;" x="50.14375" xlink:href="#m0a604b1016" y="224.64"/>
      </g>
     </g>
     <g id="text_10">
      <!-- 0.00 -->
      <g transform="translate(20.878125 228.439219)scale(0.1 -0.1)">
       <defs>
        <path d="M 10.6875 12.40625 
L 21 12.40625 
L 21 0 
L 10.6875 0 
z
" id="DejaVuSans-46"/>
       </defs>
       <use xlink:href="#DejaVuSans-48"/>
       <use x="63.623047" xlink:href="#DejaVuSans-46"/>
       <use x="95.410156" xlink:href="#DejaVuSans-48"/>
       <use x="159.033203" xlink:href="#DejaVuSans-48"/>
      </g>
     </g>
    </g>
    <g id="ytick_2">
     <g id="line2d_10">
      <g>
       <use style="stroke:#000000;stroke-width:0.8;" x="50.14375" xlink:href="#m0a604b1016" y="195.648"/>
      </g>
     </g>
     <g id="text_11">
      <!-- 0.02 -->
      <g transform="translate(20.878125 199.447219)scale(0.1 -0.1)">
       <use xlink:href="#DejaVuSans-48"/>
       <use x="63.623047" xlink:href="#DejaVuSans-46"/>
       <use x="95.410156" xlink:href="#DejaVuSans-48"/>
       <use x="159.033203" xlink:href="#DejaVuSans-50"/>
      </g>
     </g>
    </g>
    <g id="ytick_3">
     <g id="line2d_11">
      <g>
       <use style="stroke:#000000;stroke-width:0.8;" x="50.14375" xlink:href="#m0a604b1016" y="166.656"/>
      </g>
     </g>
     <g id="text_12">
      <!-- 0.04 -->
      <g transform="translate(20.878125 170.455219)scale(0.1 -0.1)">
       <defs>
        <path d="M 37.796875 64.3125 
L 12.890625 25.390625 
L 37.796875 25.390625 
z
M 35.203125 72.90625 
L 47.609375 72.90625 
L 47.609375 25.390625 
L 58.015625 25.390625 
L 58.015625 17.1875 
L 47.609375 17.1875 
L 47.609375 0 
L 37.796875 0 
L 37.796875 17.1875 
L 4.890625 17.1875 
L 4.890625 26.703125 
z
" id="DejaVuSans-52"/>
       </defs>
       <use xlink:href="#DejaVuSans-48"/>
       <use x="63.623047" xlink:href="#DejaVuSans-46"/>
       <use x="95.410156" xlink:href="#DejaVuSans-48"/>
       <use x="159.033203" xlink:href="#DejaVuSans-52"/>
      </g>
     </g>
    </g>
    <g id="ytick_4">
     <g id="line2d_12">
      <g>
       <use style="stroke:#000000;stroke-width:0.8;" x="50.14375" xlink:href="#m0a604b1016" y="137.664"/>
      </g>
     </g>
     <g id="text_13">
      <!-- 0.06 -->
      <g transform="translate(20.878125 141.463219)scale(0.1 -0.1)">
       <defs>
        <path d="M 33.015625 40.375 
Q 26.375 40.375 22.484375 35.828125 
Q 18.609375 31.296875 18.609375 23.390625 
Q 18.609375 15.53125 22.484375 10.953125 
Q 26.375 6.390625 33.015625 6.390625 
Q 39.65625 6.390625 43.53125 10.953125 
Q 47.40625 15.53125 47.40625 23.390625 
Q 47.40625 31.296875 43.53125 35.828125 
Q 39.65625 40.375 33.015625 40.375 
z
M 52.59375 71.296875 
L 52.59375 62.3125 
Q 48.875 64.0625 45.09375 64.984375 
Q 41.3125 65.921875 37.59375 65.921875 
Q 27.828125 65.921875 22.671875 59.328125 
Q 17.53125 52.734375 16.796875 39.40625 
Q 19.671875 43.65625 24.015625 45.921875 
Q 28.375 48.1875 33.59375 48.1875 
Q 44.578125 48.1875 50.953125 41.515625 
Q 57.328125 34.859375 57.328125 23.390625 
Q 57.328125 12.15625 50.6875 5.359375 
Q 44.046875 -1.421875 33.015625 -1.421875 
Q 20.359375 -1.421875 13.671875 8.265625 
Q 6.984375 17.96875 6.984375 36.375 
Q 6.984375 53.65625 15.1875 63.9375 
Q 23.390625 74.21875 37.203125 74.21875 
Q 40.921875 74.21875 44.703125 73.484375 
Q 48.484375 72.75 52.59375 71.296875 
z
" id="DejaVuSans-54"/>
       </defs>
       <use xlink:href="#DejaVuSans-48"/>
       <use x="63.623047" xlink:href="#DejaVuSans-46"/>
       <use x="95.410156" xlink:href="#DejaVuSans-48"/>
       <use x="159.033203" xlink:href="#DejaVuSans-54"/>
      </g>
     </g>
    </g>
    <g id="ytick_5">
     <g id="line2d_13">
      <g>
       <use style="stroke:#000000;stroke-width:0.8;" x="50.14375" xlink:href="#m0a604b1016" y="108.672"/>
      </g>
     </g>
     <g id="text_14">
      <!-- 0.08 -->
      <g transform="translate(20.878125 112.471219)scale(0.1 -0.1)">
       <defs>
        <path d="M 31.78125 34.625 
Q 24.75 34.625 20.71875 30.859375 
Q 16.703125 27.09375 16.703125 20.515625 
Q 16.703125 13.921875 20.71875 10.15625 
Q 24.75 6.390625 31.78125 6.390625 
Q 38.8125 6.390625 42.859375 10.171875 
Q 46.921875 13.96875 46.921875 20.515625 
Q 46.921875 27.09375 42.890625 30.859375 
Q 38.875 34.625 31.78125 34.625 
z
M 21.921875 38.8125 
Q 15.578125 40.375 12.03125 44.71875 
Q 8.5 49.078125 8.5 55.328125 
Q 8.5 64.0625 14.71875 69.140625 
Q 20.953125 74.21875 31.78125 74.21875 
Q 42.671875 74.21875 48.875 69.140625 
Q 55.078125 64.0625 55.078125 55.328125 
Q 55.078125 49.078125 51.53125 44.71875 
Q 48 40.375 41.703125 38.8125 
Q 48.828125 37.15625 52.796875 32.3125 
Q 56.78125 27.484375 56.78125 20.515625 
Q 56.78125 9.90625 50.3125 4.234375 
Q 43.84375 -1.421875 31.78125 -1.421875 
Q 19.734375 -1.421875 13.25 4.234375 
Q 6.78125 9.90625 6.78125 20.515625 
Q 6.78125 27.484375 10.78125 32.3125 
Q 14.796875 37.15625 21.921875 38.8125 
z
M 18.3125 54.390625 
Q 18.3125 48.734375 21.84375 45.5625 
Q 25.390625 42.390625 31.78125 42.390625 
Q 38.140625 42.390625 41.71875 45.5625 
Q 45.3125 48.734375 45.3125 54.390625 
Q 45.3125 60.0625 41.71875 63.234375 
Q 38.140625 66.40625 31.78125 66.40625 
Q 25.390625 66.40625 21.84375 63.234375 
Q 18.3125 60.0625 18.3125 54.390625 
z
" id="DejaVuSans-56"/>
       </defs>
       <use xlink:href="#DejaVuSans-48"/>
       <use x="63.623047" xlink:href="#DejaVuSans-46"/>
       <use x="95.410156" xlink:href="#DejaVuSans-48"/>
       <use x="159.033203" xlink:href="#DejaVuSans-56"/>
      </g>
     </g>
    </g>
    <g id="ytick_6">
     <g id="line2d_14">
      <g>
       <use style="stroke:#000000;stroke-width:0.8;" x="50.14375" xlink:href="#m0a604b1016" y="79.68"/>
      </g>
     </g>
     <g id="text_15">
      <!-- 0.10 -->
      <g transform="translate(20.878125 83.479219)scale(0.1 -0.1)">
       <use xlink:href="#DejaVuSans-48"/>
       <use x="63.623047" xlink:href="#DejaVuSans-46"/>
       <use x="95.410156" xlink:href="#DejaVuSans-49"/>
       <use x="159.033203" xlink:href="#DejaVuSans-48"/>
      </g>
     </g>
    </g>
    <g id="ytick_7">
     <g id="line2d_15">
      <g>
       <use style="stroke:#000000;stroke-width:0.8;" x="50.14375" xlink:href="#m0a604b1016" y="50.688"/>
      </g>
     </g>
     <g id="text_16">
      <!-- 0.12 -->
      <g transform="translate(20.878125 54.487219)scale(0.1 -0.1)">
       <use xlink:href="#DejaVuSans-48"/>
       <use x="63.623047" xlink:href="#DejaVuSans-46"/>
       <use x="95.410156" xlink:href="#DejaVuSans-49"/>
       <use x="159.033203" xlink:href="#DejaVuSans-50"/>
      </g>
     </g>
    </g>
    <g id="ytick_8">
     <g id="line2d_16">
      <g>
       <use style="stroke:#000000;stroke-width:0.8;" x="50.14375" xlink:href="#m0a604b1016" y="21.696"/>
      </g>
     </g>
     <g id="text_17">
      <!-- 0.14 -->
      <g transform="translate(20.878125 25.495219)scale(0.1 -0.1)">
       <use xlink:href="#DejaVuSans-48"/>
       <use x="63.623047" xlink:href="#DejaVuSans-46"/>
       <use x="95.410156" xlink:href="#DejaVuSans-49"/>
       <use x="159.033203" xlink:href="#DejaVuSans-52"/>
      </g>
     </g>
    </g>
    <g id="text_18">
     <!-- Probability -->
     <g transform="translate(14.798438 142.348906)rotate(-90)scale(0.1 -0.1)">
      <defs>
       <path d="M 19.671875 64.796875 
L 19.671875 37.40625 
L 32.078125 37.40625 
Q 38.96875 37.40625 42.71875 40.96875 
Q 46.484375 44.53125 46.484375 51.125 
Q 46.484375 57.671875 42.71875 61.234375 
Q 38.96875 64.796875 32.078125 64.796875 
z
M 9.8125 72.90625 
L 32.078125 72.90625 
Q 44.34375 72.90625 50.609375 67.359375 
Q 56.890625 61.8125 56.890625 51.125 
Q 56.890625 40.328125 50.609375 34.8125 
Q 44.34375 29.296875 32.078125 29.296875 
L 19.671875 29.296875 
L 19.671875 0 
L 9.8125 0 
z
" id="DejaVuSans-80"/>
       <path d="M 48.6875 27.296875 
Q 48.6875 37.203125 44.609375 42.84375 
Q 40.53125 48.484375 33.40625 48.484375 
Q 26.265625 48.484375 22.1875 42.84375 
Q 18.109375 37.203125 18.109375 27.296875 
Q 18.109375 17.390625 22.1875 11.75 
Q 26.265625 6.109375 33.40625 6.109375 
Q 40.53125 6.109375 44.609375 11.75 
Q 48.6875 17.390625 48.6875 27.296875 
z
M 18.109375 46.390625 
Q 20.953125 51.265625 25.265625 53.625 
Q 29.59375 56 35.59375 56 
Q 45.5625 56 51.78125 48.09375 
Q 58.015625 40.1875 58.015625 27.296875 
Q 58.015625 14.40625 51.78125 6.484375 
Q 45.5625 -1.421875 35.59375 -1.421875 
Q 29.59375 -1.421875 25.265625 0.953125 
Q 20.953125 3.328125 18.109375 8.203125 
L 18.109375 0 
L 9.078125 0 
L 9.078125 75.984375 
L 18.109375 75.984375 
z
" id="DejaVuSans-98"/>
       <path d="M 9.421875 54.6875 
L 18.40625 54.6875 
L 18.40625 0 
L 9.421875 0 
z
M 9.421875 75.984375 
L 18.40625 75.984375 
L 18.40625 64.59375 
L 9.421875 64.59375 
z
" id="DejaVuSans-105"/>
       <path d="M 32.171875 -5.078125 
Q 28.375 -14.84375 24.75 -17.8125 
Q 21.140625 -20.796875 15.09375 -20.796875 
L 7.90625 -20.796875 
L 7.90625 -13.28125 
L 13.1875 -13.28125 
Q 16.890625 -13.28125 18.9375 -11.515625 
Q 21 -9.765625 23.484375 -3.21875 
L 25.09375 0.875 
L 2.984375 54.6875 
L 12.5 54.6875 
L 29.59375 11.921875 
L 46.6875 54.6875 
L 56.203125 54.6875 
z
" id="DejaVuSans-121"/>
      </defs>
      <use xlink:href="#DejaVuSans-80"/>
      <use x="58.552734" xlink:href="#DejaVuSans-114"/>
      <use x="97.416016" xlink:href="#DejaVuSans-111"/>
      <use x="158.597656" xlink:href="#DejaVuSans-98"/>
      <use x="222.074219" xlink:href="#DejaVuSans-97"/>
      <use x="283.353516" xlink:href="#DejaVuSans-98"/>
      <use x="346.830078" xlink:href="#DejaVuSans-105"/>
      <use x="374.613281" xlink:href="#DejaVuSans-108"/>
      <use x="402.396484" xlink:href="#DejaVuSans-105"/>
      <use x="430.179688" xlink:href="#DejaVuSans-116"/>
      <use x="469.388672" xlink:href="#DejaVuSans-121"/>
     </g>
    </g>
   </g>
   <g id="line2d_17">
    <path clip-path="url(#p6660ec6f45)" d="M 65.361932 224.62303 
L 68.436312 224.613971 
L 71.510692 224.60048 
L 74.585072 224.580605 
L 77.659452 224.551642 
L 80.733833 224.509889 
L 83.808213 224.450352 
L 86.882593 224.366377 
L 89.956973 224.249226 
L 93.031353 224.087583 
L 96.105733 223.867003 
L 99.180114 223.569326 
L 102.254494 223.172069 
L 105.328874 222.647846 
L 108.403254 221.963858 
L 111.477634 221.081524 
L 114.552014 219.956313 
L 117.626395 218.537882 
L 120.700775 216.770589 
L 123.775155 214.594474 
L 126.849535 211.946773 
L 129.923915 208.76403 
L 132.998295 204.984805 
L 136.072676 200.552966 
L 139.147056 195.421482 
L 142.221436 189.556581 
L 145.295816 182.942068 
L 148.370196 175.583564 
L 151.444576 167.512352 
L 154.518957 158.788515 
L 157.593337 149.503029 
L 160.667717 139.778508 
L 163.742097 129.768336 
L 166.816477 119.654033 
L 169.890857 109.640789 
L 172.965238 99.951228 
L 176.039618 90.817633 
L 179.113998 82.472953 
L 182.188378 75.14108 
L 185.262758 69.02694 
L 188.337138 64.307004 
L 191.411519 61.12084 
L 194.485899 59.564257 
L 197.560279 59.684518 
L 200.634659 61.477963 
L 203.709039 64.890185 
L 206.783419 69.818781 
L 209.8578 76.118449 
L 212.93218 83.608104 
L 216.00656 92.079513 
L 219.08094 101.306881 
L 222.15532 111.056771 
L 225.2297 121.097753 
L 228.304081 131.20925 
L 231.378461 141.189113 
L 234.452841 150.859608 
L 237.527221 160.071628 
L 240.601601 168.707068 
L 243.675981 176.679443 
L 246.750362 183.932942 
L 249.824742 190.440158 
L 252.899122 196.198837 
L 255.973502 201.227948 
L 259.047882 205.563421 
L 262.122262 209.253835 
L 265.196643 212.356302 
L 268.271023 214.932738 
L 271.345403 217.046652 
L 274.419783 218.760523 
L 277.494163 220.133774 
L 280.568543 221.221339 
L 283.642924 222.07275 
L 286.717304 222.73169 
L 289.791684 223.235898 
L 292.866064 223.617373 
L 295.940444 223.902767 
L 299.014824 224.113908 
L 302.089205 224.268391 
L 305.163585 224.380175 
L 308.237965 224.460178 
L 311.312345 224.51681 
L 314.386725 224.556463 
L 317.461105 224.583928 
L 320.535486 224.602745 
L 323.609866 224.615499 
L 326.684246 224.62405 
L 329.758626 224.629722 
L 332.833006 224.633444 
L 335.907386 224.635861 
L 338.981767 224.637413 
L 342.056147 224.6384 
L 345.130527 224.63902 
L 348.204907 224.639406 
L 351.279287 224.639644 
L 354.353667 224.639788 
L 357.428048 224.639876 
L 360.502428 224.639928 
L 363.576808 224.639958 
L 366.651188 224.639976 
L 369.725568 224.639987 
" style="fill:none;stroke:#1f77b4;stroke-linecap:square;stroke-width:1.5;"/>
   </g>
   <g id="line2d_18">
    <path clip-path="url(#p6660ec6f45)" d="M 65.361932 224.639987 
L 68.436312 224.639976 
L 71.510692 224.639958 
L 74.585072 224.639928 
L 77.659452 224.639876 
L 80.733833 224.639788 
L 83.808213 224.639644 
L 86.882593 224.639406 
L 89.956973 224.63902 
L 93.031353 224.6384 
L 96.105733 224.637413 
L 99.180114 224.635861 
L 102.254494 224.633444 
L 105.328874 224.629722 
L 108.403254 224.62405 
L 111.477634 224.615499 
L 114.552014 224.602745 
L 117.626395 224.583928 
L 120.700775 224.556463 
L 123.775155 224.51681 
L 126.849535 224.460178 
L 129.923915 224.380175 
L 132.998295 224.268391 
L 136.072676 224.113908 
L 139.147056 223.902767 
L 142.221436 223.617373 
L 145.295816 223.235898 
L 148.370196 222.73169 
L 151.444576 222.07275 
L 154.518957 221.221339 
L 157.593337 220.133774 
L 160.667717 218.760523 
L 163.742097 217.046652 
L 166.816477 214.932738 
L 169.890857 212.356302 
L 172.965238 209.253835 
L 176.039618 205.563421 
L 179.113998 201.227948 
L 182.188378 196.198837 
L 185.262758 190.440158 
L 188.337138 183.932942 
L 191.411519 176.679443 
L 194.485899 168.707068 
L 197.560279 160.071628 
L 200.634659 150.859608 
L 203.709039 141.189113 
L 206.783419 131.20925 
L 209.8578 121.097753 
L 212.93218 111.056771 
L 216.00656 101.306881 
L 219.08094 92.079513 
L 222.15532 83.608104 
L 225.2297 76.118449 
L 228.304081 69.818781 
L 231.378461 64.890185 
L 234.452841 61.477963 
L 237.527221 59.684518 
L 240.601601 59.564257 
L 243.675981 61.12084 
L 246.750362 64.307004 
L 249.824742 69.02694 
L 252.899122 75.14108 
L 255.973502 82.472953 
L 259.047882 90.817633 
L 262.122262 99.951228 
L 265.196643 109.640789 
L 268.271023 119.654033 
L 271.345403 129.768336 
L 274.419783 139.778508 
L 277.494163 149.503029 
L 280.568543 158.788515 
L 283.642924 167.512352 
L 286.717304 175.583564 
L 289.791684 182.942068 
L 292.866064 189.556581 
L 295.940444 195.421482 
L 299.014824 200.552966 
L 302.089205 204.984805 
L 305.163585 208.76403 
L 308.237965 211.946773 
L 311.312345 214.594474 
L 314.386725 216.770589 
L 317.461105 218.537882 
L 320.535486 219.956313 
L 323.609866 221.081524 
L 326.684246 221.963858 
L 329.758626 222.647846 
L 332.833006 223.172069 
L 335.907386 223.569326 
L 338.981767 223.867003 
L 342.056147 224.087583 
L 345.130527 224.249226 
L 348.204907 224.366377 
L 351.279287 224.450352 
L 354.353667 224.509889 
L 357.428048 224.551642 
L 360.502428 224.580605 
L 363.576808 224.60048 
L 366.651188 224.613971 
L 369.725568 224.62303 
" style="fill:none;stroke:#ff0000;stroke-linecap:square;stroke-width:1.5;"/>
   </g>
   <g id="line2d_19">
    <path clip-path="url(#p6660ec6f45)" d="M 195.80349 224.64 
L 195.80349 21.696 
" style="fill:none;stroke:#000000;stroke-linecap:square;stroke-width:1.5;"/>
   </g>
   <g id="patch_3">
    <path d="M 50.14375 224.64 
L 50.14375 7.2 
" style="fill:none;stroke:#000000;stroke-linecap:square;stroke-linejoin:miter;stroke-width:0.8;"/>
   </g>
   <g id="patch_4">
    <path d="M 384.94375 224.64 
L 384.94375 7.2 
" style="fill:none;stroke:#000000;stroke-linecap:square;stroke-linejoin:miter;stroke-width:0.8;"/>
   </g>
   <g id="patch_5">
    <path d="M 50.14375 224.64 
L 384.94375 224.64 
" style="fill:none;stroke:#000000;stroke-linecap:square;stroke-linejoin:miter;stroke-width:0.8;"/>
   </g>
   <g id="patch_6">
    <path d="M 50.14375 7.2 
L 384.94375 7.2 
" style="fill:none;stroke:#000000;stroke-linecap:square;stroke-linejoin:miter;stroke-width:0.8;"/>
   </g>
   <g id="patch_7">
    <path d="M 233.576311 137.474147 
Q 253.168825 136.861122 272.761339 136.248098 
L 272.636245 132.250054 
Q 278.725734 135.06099 284.815223 137.871926 
Q 278.913374 141.058056 273.011526 144.244185 
L 272.886433 140.246141 
Q 253.293918 140.859166 233.701404 141.47219 
L 233.576311 137.474147 
z
" style="stroke:#000000;stroke-linecap:round;"/>
   </g>
   <g id="text_19">
    <!-- Yes -->
    <g transform="translate(208.847646 137.664)scale(0.1 -0.1)">
     <defs>
      <path d="M -0.203125 72.90625 
L 10.40625 72.90625 
L 30.609375 42.921875 
L 50.6875 72.90625 
L 61.28125 72.90625 
L 35.5 34.71875 
L 35.5 0 
L 25.59375 0 
L 25.59375 34.71875 
z
" id="DejaVuSans-89"/>
     </defs>
     <use xlink:href="#DejaVuSans-89"/>
     <use x="47.833984" xlink:href="#DejaVuSans-101"/>
     <use x="109.357422" xlink:href="#DejaVuSans-115"/>
    </g>
   </g>
   <g id="patch_8">
    <path d="M 158.975175 141.48741 
Q 131.189359 140.822908 103.403544 140.158406 
L 103.30791 144.157262 
Q 97.381198 141.014666 91.454487 137.87207 
Q 97.524648 135.016381 103.59481 132.160692 
L 103.499177 136.159549 
Q 131.284993 136.824051 159.070808 137.488554 
L 158.975175 141.48741 
z
" style="stroke:#000000;stroke-linecap:round;"/>
   </g>
   <g id="text_20">
    <!-- No -->
    <g transform="translate(169.715179 137.664)scale(0.1 -0.1)">
     <defs>
      <path d="M 9.8125 72.90625 
L 23.09375 72.90625 
L 55.421875 11.921875 
L 55.421875 72.90625 
L 64.984375 72.90625 
L 64.984375 0 
L 51.703125 0 
L 19.390625 60.984375 
L 19.390625 0 
L 9.8125 0 
z
" id="DejaVuSans-78"/>
     </defs>
     <use xlink:href="#DejaVuSans-78"/>
     <use x="74.804688" xlink:href="#DejaVuSans-111"/>
    </g>
   </g>
   <g id="patch_9">
    <path d="M 225.782575 27.614547 
Q 218.520633 30.206701 211.258691 32.798854 
L 212.603393 36.566051 
Q 205.943887 35.757773 199.28438 34.949495 
Q 203.926833 30.106977 208.569285 25.26446 
L 209.913988 29.031657 
Q 217.17593 26.439503 224.437872 23.84735 
L 225.782575 27.614547 
z
" style="stroke:#000000;stroke-linecap:round;"/>
   </g>
   <g id="text_21">
    <!-- Criterion -->
    <g transform="translate(230.587906 21.696)scale(0.1 -0.1)">
     <defs>
      <path d="M 64.40625 67.28125 
L 64.40625 56.890625 
Q 59.421875 61.53125 53.78125 63.8125 
Q 48.140625 66.109375 41.796875 66.109375 
Q 29.296875 66.109375 22.65625 58.46875 
Q 16.015625 50.828125 16.015625 36.375 
Q 16.015625 21.96875 22.65625 14.328125 
Q 29.296875 6.6875 41.796875 6.6875 
Q 48.140625 6.6875 53.78125 8.984375 
Q 59.421875 11.28125 64.40625 15.921875 
L 64.40625 5.609375 
Q 59.234375 2.09375 53.4375 0.328125 
Q 47.65625 -1.421875 41.21875 -1.421875 
Q 24.65625 -1.421875 15.125 8.703125 
Q 5.609375 18.84375 5.609375 36.375 
Q 5.609375 53.953125 15.125 64.078125 
Q 24.65625 74.21875 41.21875 74.21875 
Q 47.75 74.21875 53.53125 72.484375 
Q 59.328125 70.75 64.40625 67.28125 
z
" id="DejaVuSans-67"/>
     </defs>
     <use xlink:href="#DejaVuSans-67"/>
     <use x="69.824219" xlink:href="#DejaVuSans-114"/>
     <use x="110.9375" xlink:href="#DejaVuSans-105"/>
     <use x="138.720703" xlink:href="#DejaVuSans-116"/>
     <use x="177.929688" xlink:href="#DejaVuSans-101"/>
     <use x="239.453125" xlink:href="#DejaVuSans-114"/>
     <use x="280.566406" xlink:href="#DejaVuSans-105"/>
     <use x="308.349609" xlink:href="#DejaVuSans-111"/>
     <use x="369.53125" xlink:href="#DejaVuSans-110"/>
    </g>
   </g>
  </g>
 </g>
 <defs>
  <clipPath id="p6660ec6f45">
   <rect height="217.44" width="334.8" x="50.14375" y="7.2"/>
  </clipPath>
 </defs>
</svg>
