<?xml version="1.0" encoding="utf-8" standalone="no"?>
<!DOCTYPE svg PUBLIC "-//W3C//DTD SVG 1.1//EN"
  "http://www.w3.org/Graphics/SVG/1.1/DTD/svg11.dtd">
<!-- Created with matplotlib (https://matplotlib.org/) -->
<svg height="296.39952pt" version="1.1" viewBox="0 0 584.39952 296.39952" width="584.39952pt" xmlns="http://www.w3.org/2000/svg" xmlns:xlink="http://www.w3.org/1999/xlink">
 <metadata>
  <rdf:RDF xmlns:cc="http://creativecommons.org/ns#" xmlns:dc="http://purl.org/dc/elements/1.1/" xmlns:rdf="http://www.w3.org/1999/02/22-rdf-syntax-ns#">
   <cc:Work>
    <dc:type rdf:resource="http://purl.org/dc/dcmitype/StillImage"/>
    <dc:date>2021-03-30T12:03:32.209666</dc:date>
    <dc:format>image/svg+xml</dc:format>
    <dc:creator>
     <cc:Agent>
      <dc:title>Matplotlib v3.3.3, https://matplotlib.org/</dc:title>
     </cc:Agent>
    </dc:creator>
   </cc:Work>
  </rdf:RDF>
 </metadata>
 <defs>
  <style type="text/css">*{stroke-linecap:butt;stroke-linejoin:round;}</style>
 </defs>
 <g id="figure_1">
  <g id="patch_1">
   <path d="M 0 296.39952 
L 584.39952 296.39952 
L 584.39952 0 
L 0 0 
z
" style="fill:none;"/>
  </g>
  <g id="axes_1">
   <g id="patch_2">
    <path d="M 50.14375 258.84327 
L 286.31952 258.84327 
L 286.31952 22.318125 
L 50.14375 22.318125 
z
" style="fill:#ffffff;"/>
   </g>
   <g id="PolyCollection_1">
    <path clip-path="url(#pd6ca3e421a)" d="M 60.879012 258.842945 
L 60.879012 258.842945 
L 63.047752 258.842727 
L 65.216492 258.842371 
L 67.385232 258.841797 
L 69.553972 258.840881 
L 71.722712 258.839433 
L 73.891451 258.837172 
L 76.060191 258.833676 
L 78.228931 258.828329 
L 80.397671 258.820239 
L 82.566411 258.808128 
L 84.735151 258.790193 
L 86.903891 258.763919 
L 89.07263 258.725842 
L 91.24137 258.671257 
L 93.41011 258.593858 
L 95.57885 258.485304 
L 97.74759 258.334718 
L 99.91633 258.128118 
L 102.085069 257.847795 
L 104.253809 257.47166 
L 106.422549 256.972587 
L 108.591289 256.317821 
L 110.760029 255.468487 
L 112.928769 254.379293 
L 115.097509 252.998507 
L 117.266248 251.268303 
L 119.434988 249.12557 
L 121.603728 246.503272 
L 123.772468 243.332421 
L 125.941208 239.544708 
L 128.109948 235.075788 
L 130.278688 229.869148 
L 132.447427 223.880464 
L 134.616167 217.082246 
L 136.784907 209.468524 
L 138.953647 201.059285 
L 141.122387 191.904307 
L 143.291127 182.086031 
L 145.459867 171.721119 
L 147.628606 160.960398 
L 149.797346 149.986937 
L 151.966086 139.012164 
L 154.134826 128.26999 
L 156.303566 118.009134 
L 158.472306 108.483923 
L 160.641046 99.944036 
L 162.809785 92.62374 
L 164.978525 86.73126 
L 167.147265 82.438967 
L 169.316005 79.874996 
L 171.484745 79.1169 
L 173.653485 80.187754 
L 175.822224 83.054984 
L 177.990964 87.632015 
L 180.159704 93.782614 
L 182.328444 101.327625 
L 184.497184 110.053627 
L 186.665924 119.722945 
L 188.834664 130.084345 
L 191.003403 140.883755 
L 193.172143 151.874381 
L 195.340883 162.825664 
L 197.509623 173.530679 
L 199.678363 183.811659 
L 201.847103 193.523555 
L 204.015843 202.555613 
L 206.184582 210.831144 
L 208.353322 218.305713 
L 210.522062 224.964074 
L 212.690802 230.816214 
L 214.859542 235.892844 
L 217.028282 240.240702 
L 219.197022 243.917941 
L 221.365761 246.989846 
L 223.534501 249.525058 
L 225.703241 251.592398 
L 227.871981 253.258353 
L 230.040721 254.585206 
L 232.209461 255.629784 
L 234.378201 256.442727 
L 236.54694 257.068216 
L 238.71568 257.544051 
L 240.88442 257.901983 
L 243.05316 258.168228 
L 245.2219 258.364079 
L 247.39064 258.506561 
L 249.559379 258.609079 
L 251.728119 258.682037 
L 253.896859 258.733393 
L 256.065599 258.769151 
L 258.234339 258.79378 
L 260.403079 258.81056 
L 262.571819 258.82187 
L 264.740558 258.829412 
L 266.909298 258.834387 
L 269.078038 258.837634 
L 271.246778 258.83973 
L 273.415518 258.841069 
L 275.584258 258.841916 
L 275.584258 258.841916 
L 275.584258 258.84327 
L 273.415518 258.84327 
L 271.246778 258.84327 
L 269.078038 258.84327 
L 266.909298 258.84327 
L 264.740558 258.84327 
L 262.571819 258.84327 
L 260.403079 258.84327 
L 258.234339 258.84327 
L 256.065599 258.84327 
L 253.896859 258.84327 
L 251.728119 258.84327 
L 249.559379 258.84327 
L 247.39064 258.84327 
L 245.2219 258.84327 
L 243.05316 258.84327 
L 240.88442 258.84327 
L 238.71568 258.84327 
L 236.54694 258.84327 
L 234.378201 258.84327 
L 232.209461 258.84327 
L 230.040721 258.84327 
L 227.871981 258.84327 
L 225.703241 258.84327 
L 223.534501 258.84327 
L 221.365761 258.84327 
L 219.197022 258.84327 
L 217.028282 258.84327 
L 214.859542 258.84327 
L 212.690802 258.84327 
L 210.522062 258.84327 
L 208.353322 258.84327 
L 206.184582 258.84327 
L 204.015843 258.84327 
L 201.847103 258.84327 
L 199.678363 258.84327 
L 197.509623 258.84327 
L 195.340883 258.84327 
L 193.172143 258.84327 
L 191.003403 258.84327 
L 188.834664 258.84327 
L 186.665924 258.84327 
L 184.497184 258.84327 
L 182.328444 258.84327 
L 180.159704 258.84327 
L 177.990964 258.84327 
L 175.822224 258.84327 
L 173.653485 258.84327 
L 171.484745 258.84327 
L 169.316005 258.84327 
L 167.147265 258.84327 
L 164.978525 258.84327 
L 162.809785 258.84327 
L 160.641046 258.84327 
L 158.472306 258.84327 
L 156.303566 258.84327 
L 154.134826 258.84327 
L 151.966086 258.84327 
L 149.797346 258.84327 
L 147.628606 258.84327 
L 145.459867 258.84327 
L 143.291127 258.84327 
L 141.122387 258.84327 
L 138.953647 258.84327 
L 136.784907 258.84327 
L 134.616167 258.84327 
L 132.447427 258.84327 
L 130.278688 258.84327 
L 128.109948 258.84327 
L 125.941208 258.84327 
L 123.772468 258.84327 
L 121.603728 258.84327 
L 119.434988 258.84327 
L 117.266248 258.84327 
L 115.097509 258.84327 
L 112.928769 258.84327 
L 110.760029 258.84327 
L 108.591289 258.84327 
L 106.422549 258.84327 
L 104.253809 258.84327 
L 102.085069 258.84327 
L 99.91633 258.84327 
L 97.74759 258.84327 
L 95.57885 258.84327 
L 93.41011 258.84327 
L 91.24137 258.84327 
L 89.07263 258.84327 
L 86.903891 258.84327 
L 84.735151 258.84327 
L 82.566411 258.84327 
L 80.397671 258.84327 
L 78.228931 258.84327 
L 76.060191 258.84327 
L 73.891451 258.84327 
L 71.722712 258.84327 
L 69.553972 258.84327 
L 67.385232 258.84327 
L 65.216492 258.84327 
L 63.047752 258.84327 
L 60.879012 258.84327 
z
" style="fill:#ffc0cb;fill-opacity:0.2;"/>
   </g>
   <g id="PolyCollection_2">
    <path clip-path="url(#pd6ca3e421a)" d="M 60.879012 258.824811 
L 60.879012 258.824811 
L 63.047752 258.814956 
L 65.216492 258.800281 
L 67.385232 258.778662 
L 69.553972 258.747156 
L 71.722712 258.701739 
L 73.891451 258.636976 
L 76.060191 258.54563 
L 78.228931 258.418197 
L 80.397671 258.242366 
L 82.566411 258.002425 
L 84.735151 257.67862 
L 86.903891 257.246495 
L 89.07263 256.67626 
L 91.24137 255.932238 
L 93.41011 254.972459 
L 95.57885 253.748486 
L 97.74759 252.205557 
L 99.91633 250.283145 
L 102.085069 247.916028 
L 104.253809 245.035933 
L 106.422549 241.573835 
L 108.591289 237.462899 
L 110.760029 232.642068 
L 112.928769 227.060184 
L 115.097509 220.680509 
L 117.266248 213.485427 
L 119.434988 205.481052 
L 121.603728 196.701413 
L 123.772468 187.211868 
L 125.941208 177.111377 
L 128.109948 166.533315 
L 130.278688 155.644529 
L 132.447427 144.642474 
L 134.616167 133.750347 
L 136.784907 123.210315 
L 138.953647 113.275045 
L 141.122387 104.197936 
L 143.291127 96.22253 
L 145.459867 89.571739 
L 147.628606 84.437526 
L 149.797346 80.971706 
L 151.966086 79.278497 
L 154.134826 79.409315 
L 156.303566 81.360173 
L 158.472306 85.071894 
L 160.641046 90.433083 
L 162.809785 97.285685 
L 164.978525 105.432721 
L 167.147265 114.647683 
L 169.316005 124.684956 
L 171.484745 135.290613 
L 173.653485 146.212913 
L 175.822224 157.211916 
L 177.990964 168.067731 
L 180.159704 178.587025 
L 182.328444 188.607602 
L 184.497184 198.000992 
L 186.665924 206.673119 
L 188.834664 214.563271 
L 191.003403 221.641639 
L 193.172143 227.905769 
L 195.340883 233.376295 
L 197.509623 238.092301 
L 199.678363 242.106631 
L 201.847103 245.481407 
L 204.015843 248.283982 
L 206.184582 250.583439 
L 208.353322 252.44774 
L 210.522062 253.941524 
L 212.690802 255.124546 
L 214.859542 256.050688 
L 217.028282 256.767464 
L 219.197022 257.315927 
L 221.365761 257.730885 
L 223.534501 258.041328 
L 225.703241 258.271002 
L 227.871981 258.439044 
L 230.040721 258.56064 
L 232.209461 258.647664 
L 234.378201 258.709267 
L 236.54694 258.752401 
L 238.71568 258.782276 
L 240.88442 258.802745 
L 243.05316 258.816618 
L 245.2219 258.82592 
L 247.39064 258.83209 
L 249.559379 258.836139 
L 251.728119 258.838768 
L 253.896859 258.840456 
L 256.065599 258.841529 
L 258.234339 258.842204 
L 260.403079 258.842624 
L 262.571819 258.842882 
L 264.740558 258.84304 
L 266.909298 258.843135 
L 269.078038 258.843191 
L 271.246778 258.843225 
L 273.415518 258.843244 
L 275.584258 258.843255 
L 275.584258 258.843255 
L 275.584258 258.84327 
L 273.415518 258.84327 
L 271.246778 258.84327 
L 269.078038 258.84327 
L 266.909298 258.84327 
L 264.740558 258.84327 
L 262.571819 258.84327 
L 260.403079 258.84327 
L 258.234339 258.84327 
L 256.065599 258.84327 
L 253.896859 258.84327 
L 251.728119 258.84327 
L 249.559379 258.84327 
L 247.39064 258.84327 
L 245.2219 258.84327 
L 243.05316 258.84327 
L 240.88442 258.84327 
L 238.71568 258.84327 
L 236.54694 258.84327 
L 234.378201 258.84327 
L 232.209461 258.84327 
L 230.040721 258.84327 
L 227.871981 258.84327 
L 225.703241 258.84327 
L 223.534501 258.84327 
L 221.365761 258.84327 
L 219.197022 258.84327 
L 217.028282 258.84327 
L 214.859542 258.84327 
L 212.690802 258.84327 
L 210.522062 258.84327 
L 208.353322 258.84327 
L 206.184582 258.84327 
L 204.015843 258.84327 
L 201.847103 258.84327 
L 199.678363 258.84327 
L 197.509623 258.84327 
L 195.340883 258.84327 
L 193.172143 258.84327 
L 191.003403 258.84327 
L 188.834664 258.84327 
L 186.665924 258.84327 
L 184.497184 258.84327 
L 182.328444 258.84327 
L 180.159704 258.84327 
L 177.990964 258.84327 
L 175.822224 258.84327 
L 173.653485 258.84327 
L 171.484745 258.84327 
L 169.316005 258.84327 
L 167.147265 258.84327 
L 164.978525 258.84327 
L 162.809785 258.84327 
L 160.641046 258.84327 
L 158.472306 258.84327 
L 156.303566 258.84327 
L 154.134826 258.84327 
L 151.966086 258.84327 
L 149.797346 258.84327 
L 147.628606 258.84327 
L 145.459867 258.84327 
L 143.291127 258.84327 
L 141.122387 258.84327 
L 138.953647 258.84327 
L 136.784907 258.84327 
L 134.616167 258.84327 
L 132.447427 258.84327 
L 130.278688 258.84327 
L 128.109948 258.84327 
L 125.941208 258.84327 
L 123.772468 258.84327 
L 121.603728 258.84327 
L 119.434988 258.84327 
L 117.266248 258.84327 
L 115.097509 258.84327 
L 112.928769 258.84327 
L 110.760029 258.84327 
L 108.591289 258.84327 
L 106.422549 258.84327 
L 104.253809 258.84327 
L 102.085069 258.84327 
L 99.91633 258.84327 
L 97.74759 258.84327 
L 95.57885 258.84327 
L 93.41011 258.84327 
L 91.24137 258.84327 
L 89.07263 258.84327 
L 86.903891 258.84327 
L 84.735151 258.84327 
L 82.566411 258.84327 
L 80.397671 258.84327 
L 78.228931 258.84327 
L 76.060191 258.84327 
L 73.891451 258.84327 
L 71.722712 258.84327 
L 69.553972 258.84327 
L 67.385232 258.84327 
L 65.216492 258.84327 
L 63.047752 258.84327 
L 60.879012 258.84327 
z
" style="fill:#add8e6;fill-opacity:0.2;"/>
   </g>
   <g id="matplotlib.axis_1">
    <g id="xtick_1">
     <g id="line2d_1">
      <defs>
       <path d="M 0 0 
L 0 3.5 
" id="m084fd0ea39" style="stroke:#000000;stroke-width:0.8;"/>
      </defs>
      <g>
       <use style="stroke:#000000;stroke-width:0.8;" x="91.55119" xlink:href="#m084fd0ea39" y="258.84327"/>
      </g>
     </g>
     <g id="text_1">
      <!-- 0 -->
      <g transform="translate(88.36994 273.441707)scale(0.1 -0.1)">
       <defs>
        <path d="M 31.78125 66.40625 
Q 24.171875 66.40625 20.328125 58.90625 
Q 16.5 51.421875 16.5 36.375 
Q 16.5 21.390625 20.328125 13.890625 
Q 24.171875 6.390625 31.78125 6.390625 
Q 39.453125 6.390625 43.28125 13.890625 
Q 47.125 21.390625 47.125 36.375 
Q 47.125 51.421875 43.28125 58.90625 
Q 39.453125 66.40625 31.78125 66.40625 
z
M 31.78125 74.21875 
Q 44.046875 74.21875 50.515625 64.515625 
Q 56.984375 54.828125 56.984375 36.375 
Q 56.984375 17.96875 50.515625 8.265625 
Q 44.046875 -1.421875 31.78125 -1.421875 
Q 19.53125 -1.421875 13.0625 8.265625 
Q 6.59375 17.96875 6.59375 36.375 
Q 6.59375 54.828125 13.0625 64.515625 
Q 19.53125 74.21875 31.78125 74.21875 
z
" id="DejaVuSans-48"/>
       </defs>
       <use xlink:href="#DejaVuSans-48"/>
      </g>
     </g>
    </g>
    <g id="xtick_2">
     <g id="line2d_2">
      <g>
       <use style="stroke:#000000;stroke-width:0.8;" x="152.895546" xlink:href="#m084fd0ea39" y="258.84327"/>
      </g>
     </g>
     <g id="text_2">
      <!-- 10 -->
      <g transform="translate(146.533046 273.441707)scale(0.1 -0.1)">
       <defs>
        <path d="M 12.40625 8.296875 
L 28.515625 8.296875 
L 28.515625 63.921875 
L 10.984375 60.40625 
L 10.984375 69.390625 
L 28.421875 72.90625 
L 38.28125 72.90625 
L 38.28125 8.296875 
L 54.390625 8.296875 
L 54.390625 0 
L 12.40625 0 
z
" id="DejaVuSans-49"/>
       </defs>
       <use xlink:href="#DejaVuSans-49"/>
       <use x="63.623047" xlink:href="#DejaVuSans-48"/>
      </g>
     </g>
    </g>
    <g id="xtick_3">
     <g id="line2d_3">
      <g>
       <use style="stroke:#000000;stroke-width:0.8;" x="214.239902" xlink:href="#m084fd0ea39" y="258.84327"/>
      </g>
     </g>
     <g id="text_3">
      <!-- 20 -->
      <g transform="translate(207.877402 273.441707)scale(0.1 -0.1)">
       <defs>
        <path d="M 19.1875 8.296875 
L 53.609375 8.296875 
L 53.609375 0 
L 7.328125 0 
L 7.328125 8.296875 
Q 12.9375 14.109375 22.625 23.890625 
Q 32.328125 33.6875 34.8125 36.53125 
Q 39.546875 41.84375 41.421875 45.53125 
Q 43.3125 49.21875 43.3125 52.78125 
Q 43.3125 58.59375 39.234375 62.25 
Q 35.15625 65.921875 28.609375 65.921875 
Q 23.96875 65.921875 18.8125 64.3125 
Q 13.671875 62.703125 7.8125 59.421875 
L 7.8125 69.390625 
Q 13.765625 71.78125 18.9375 73 
Q 24.125 74.21875 28.421875 74.21875 
Q 39.75 74.21875 46.484375 68.546875 
Q 53.21875 62.890625 53.21875 53.421875 
Q 53.21875 48.921875 51.53125 44.890625 
Q 49.859375 40.875 45.40625 35.40625 
Q 44.1875 33.984375 37.640625 27.21875 
Q 31.109375 20.453125 19.1875 8.296875 
z
" id="DejaVuSans-50"/>
       </defs>
       <use xlink:href="#DejaVuSans-50"/>
       <use x="63.623047" xlink:href="#DejaVuSans-48"/>
      </g>
     </g>
    </g>
    <g id="xtick_4">
     <g id="line2d_4">
      <g>
       <use style="stroke:#000000;stroke-width:0.8;" x="275.584258" xlink:href="#m084fd0ea39" y="258.84327"/>
      </g>
     </g>
     <g id="text_4">
      <!-- 30 -->
      <g transform="translate(269.221758 273.441707)scale(0.1 -0.1)">
       <defs>
        <path d="M 40.578125 39.3125 
Q 47.65625 37.796875 51.625 33 
Q 55.609375 28.21875 55.609375 21.1875 
Q 55.609375 10.40625 48.1875 4.484375 
Q 40.765625 -1.421875 27.09375 -1.421875 
Q 22.515625 -1.421875 17.65625 -0.515625 
Q 12.796875 0.390625 7.625 2.203125 
L 7.625 11.71875 
Q 11.71875 9.328125 16.59375 8.109375 
Q 21.484375 6.890625 26.8125 6.890625 
Q 36.078125 6.890625 40.9375 10.546875 
Q 45.796875 14.203125 45.796875 21.1875 
Q 45.796875 27.640625 41.28125 31.265625 
Q 36.765625 34.90625 28.71875 34.90625 
L 20.21875 34.90625 
L 20.21875 43.015625 
L 29.109375 43.015625 
Q 36.375 43.015625 40.234375 45.921875 
Q 44.09375 48.828125 44.09375 54.296875 
Q 44.09375 59.90625 40.109375 62.90625 
Q 36.140625 65.921875 28.71875 65.921875 
Q 24.65625 65.921875 20.015625 65.03125 
Q 15.375 64.15625 9.8125 62.3125 
L 9.8125 71.09375 
Q 15.4375 72.65625 20.34375 73.4375 
Q 25.25 74.21875 29.59375 74.21875 
Q 40.828125 74.21875 47.359375 69.109375 
Q 53.90625 64.015625 53.90625 55.328125 
Q 53.90625 49.265625 50.4375 45.09375 
Q 46.96875 40.921875 40.578125 39.3125 
z
" id="DejaVuSans-51"/>
       </defs>
       <use xlink:href="#DejaVuSans-51"/>
       <use x="63.623047" xlink:href="#DejaVuSans-48"/>
      </g>
     </g>
    </g>
    <g id="text_5">
     <!-- Internal response -->
     <g transform="translate(124.664447 287.119832)scale(0.1 -0.1)">
      <defs>
       <path d="M 9.8125 72.90625 
L 19.671875 72.90625 
L 19.671875 0 
L 9.8125 0 
z
" id="DejaVuSans-73"/>
       <path d="M 54.890625 33.015625 
L 54.890625 0 
L 45.90625 0 
L 45.90625 32.71875 
Q 45.90625 40.484375 42.875 44.328125 
Q 39.84375 48.1875 33.796875 48.1875 
Q 26.515625 48.1875 22.3125 43.546875 
Q 18.109375 38.921875 18.109375 30.90625 
L 18.109375 0 
L 9.078125 0 
L 9.078125 54.6875 
L 18.109375 54.6875 
L 18.109375 46.1875 
Q 21.34375 51.125 25.703125 53.5625 
Q 30.078125 56 35.796875 56 
Q 45.21875 56 50.046875 50.171875 
Q 54.890625 44.34375 54.890625 33.015625 
z
" id="DejaVuSans-110"/>
       <path d="M 18.3125 70.21875 
L 18.3125 54.6875 
L 36.8125 54.6875 
L 36.8125 47.703125 
L 18.3125 47.703125 
L 18.3125 18.015625 
Q 18.3125 11.328125 20.140625 9.421875 
Q 21.96875 7.515625 27.59375 7.515625 
L 36.8125 7.515625 
L 36.8125 0 
L 27.59375 0 
Q 17.1875 0 13.234375 3.875 
Q 9.28125 7.765625 9.28125 18.015625 
L 9.28125 47.703125 
L 2.6875 47.703125 
L 2.6875 54.6875 
L 9.28125 54.6875 
L 9.28125 70.21875 
z
" id="DejaVuSans-116"/>
       <path d="M 56.203125 29.59375 
L 56.203125 25.203125 
L 14.890625 25.203125 
Q 15.484375 15.921875 20.484375 11.0625 
Q 25.484375 6.203125 34.421875 6.203125 
Q 39.59375 6.203125 44.453125 7.46875 
Q 49.3125 8.734375 54.109375 11.28125 
L 54.109375 2.78125 
Q 49.265625 0.734375 44.1875 -0.34375 
Q 39.109375 -1.421875 33.890625 -1.421875 
Q 20.796875 -1.421875 13.15625 6.1875 
Q 5.515625 13.8125 5.515625 26.8125 
Q 5.515625 40.234375 12.765625 48.109375 
Q 20.015625 56 32.328125 56 
Q 43.359375 56 49.78125 48.890625 
Q 56.203125 41.796875 56.203125 29.59375 
z
M 47.21875 32.234375 
Q 47.125 39.59375 43.09375 43.984375 
Q 39.0625 48.390625 32.421875 48.390625 
Q 24.90625 48.390625 20.390625 44.140625 
Q 15.875 39.890625 15.1875 32.171875 
z
" id="DejaVuSans-101"/>
       <path d="M 41.109375 46.296875 
Q 39.59375 47.171875 37.8125 47.578125 
Q 36.03125 48 33.890625 48 
Q 26.265625 48 22.1875 43.046875 
Q 18.109375 38.09375 18.109375 28.8125 
L 18.109375 0 
L 9.078125 0 
L 9.078125 54.6875 
L 18.109375 54.6875 
L 18.109375 46.1875 
Q 20.953125 51.171875 25.484375 53.578125 
Q 30.03125 56 36.53125 56 
Q 37.453125 56 38.578125 55.875 
Q 39.703125 55.765625 41.0625 55.515625 
z
" id="DejaVuSans-114"/>
       <path d="M 34.28125 27.484375 
Q 23.390625 27.484375 19.1875 25 
Q 14.984375 22.515625 14.984375 16.5 
Q 14.984375 11.71875 18.140625 8.90625 
Q 21.296875 6.109375 26.703125 6.109375 
Q 34.1875 6.109375 38.703125 11.40625 
Q 43.21875 16.703125 43.21875 25.484375 
L 43.21875 27.484375 
z
M 52.203125 31.203125 
L 52.203125 0 
L 43.21875 0 
L 43.21875 8.296875 
Q 40.140625 3.328125 35.546875 0.953125 
Q 30.953125 -1.421875 24.3125 -1.421875 
Q 15.921875 -1.421875 10.953125 3.296875 
Q 6 8.015625 6 15.921875 
Q 6 25.140625 12.171875 29.828125 
Q 18.359375 34.515625 30.609375 34.515625 
L 43.21875 34.515625 
L 43.21875 35.40625 
Q 43.21875 41.609375 39.140625 45 
Q 35.0625 48.390625 27.6875 48.390625 
Q 23 48.390625 18.546875 47.265625 
Q 14.109375 46.140625 10.015625 43.890625 
L 10.015625 52.203125 
Q 14.9375 54.109375 19.578125 55.046875 
Q 24.21875 56 28.609375 56 
Q 40.484375 56 46.34375 49.84375 
Q 52.203125 43.703125 52.203125 31.203125 
z
" id="DejaVuSans-97"/>
       <path d="M 9.421875 75.984375 
L 18.40625 75.984375 
L 18.40625 0 
L 9.421875 0 
z
" id="DejaVuSans-108"/>
       <path id="DejaVuSans-32"/>
       <path d="M 44.28125 53.078125 
L 44.28125 44.578125 
Q 40.484375 46.53125 36.375 47.5 
Q 32.28125 48.484375 27.875 48.484375 
Q 21.1875 48.484375 17.84375 46.4375 
Q 14.5 44.390625 14.5 40.28125 
Q 14.5 37.15625 16.890625 35.375 
Q 19.28125 33.59375 26.515625 31.984375 
L 29.59375 31.296875 
Q 39.15625 29.25 43.1875 25.515625 
Q 47.21875 21.78125 47.21875 15.09375 
Q 47.21875 7.46875 41.1875 3.015625 
Q 35.15625 -1.421875 24.609375 -1.421875 
Q 20.21875 -1.421875 15.453125 -0.5625 
Q 10.6875 0.296875 5.421875 2 
L 5.421875 11.28125 
Q 10.40625 8.6875 15.234375 7.390625 
Q 20.0625 6.109375 24.8125 6.109375 
Q 31.15625 6.109375 34.5625 8.28125 
Q 37.984375 10.453125 37.984375 14.40625 
Q 37.984375 18.0625 35.515625 20.015625 
Q 33.0625 21.96875 24.703125 23.78125 
L 21.578125 24.515625 
Q 13.234375 26.265625 9.515625 29.90625 
Q 5.8125 33.546875 5.8125 39.890625 
Q 5.8125 47.609375 11.28125 51.796875 
Q 16.75 56 26.8125 56 
Q 31.78125 56 36.171875 55.265625 
Q 40.578125 54.546875 44.28125 53.078125 
z
" id="DejaVuSans-115"/>
       <path d="M 18.109375 8.203125 
L 18.109375 -20.796875 
L 9.078125 -20.796875 
L 9.078125 54.6875 
L 18.109375 54.6875 
L 18.109375 46.390625 
Q 20.953125 51.265625 25.265625 53.625 
Q 29.59375 56 35.59375 56 
Q 45.5625 56 51.78125 48.09375 
Q 58.015625 40.1875 58.015625 27.296875 
Q 58.015625 14.40625 51.78125 6.484375 
Q 45.5625 -1.421875 35.59375 -1.421875 
Q 29.59375 -1.421875 25.265625 0.953125 
Q 20.953125 3.328125 18.109375 8.203125 
z
M 48.6875 27.296875 
Q 48.6875 37.203125 44.609375 42.84375 
Q 40.53125 48.484375 33.40625 48.484375 
Q 26.265625 48.484375 22.1875 42.84375 
Q 18.109375 37.203125 18.109375 27.296875 
Q 18.109375 17.390625 22.1875 11.75 
Q 26.265625 6.109375 33.40625 6.109375 
Q 40.53125 6.109375 44.609375 11.75 
Q 48.6875 17.390625 48.6875 27.296875 
z
" id="DejaVuSans-112"/>
       <path d="M 30.609375 48.390625 
Q 23.390625 48.390625 19.1875 42.75 
Q 14.984375 37.109375 14.984375 27.296875 
Q 14.984375 17.484375 19.15625 11.84375 
Q 23.34375 6.203125 30.609375 6.203125 
Q 37.796875 6.203125 41.984375 11.859375 
Q 46.1875 17.53125 46.1875 27.296875 
Q 46.1875 37.015625 41.984375 42.703125 
Q 37.796875 48.390625 30.609375 48.390625 
z
M 30.609375 56 
Q 42.328125 56 49.015625 48.375 
Q 55.71875 40.765625 55.71875 27.296875 
Q 55.71875 13.875 49.015625 6.21875 
Q 42.328125 -1.421875 30.609375 -1.421875 
Q 18.84375 -1.421875 12.171875 6.21875 
Q 5.515625 13.875 5.515625 27.296875 
Q 5.515625 40.765625 12.171875 48.375 
Q 18.84375 56 30.609375 56 
z
" id="DejaVuSans-111"/>
      </defs>
      <use xlink:href="#DejaVuSans-73"/>
      <use x="29.492188" xlink:href="#DejaVuSans-110"/>
      <use x="92.871094" xlink:href="#DejaVuSans-116"/>
      <use x="132.080078" xlink:href="#DejaVuSans-101"/>
      <use x="193.603516" xlink:href="#DejaVuSans-114"/>
      <use x="232.966797" xlink:href="#DejaVuSans-110"/>
      <use x="296.345703" xlink:href="#DejaVuSans-97"/>
      <use x="357.625" xlink:href="#DejaVuSans-108"/>
      <use x="385.408203" xlink:href="#DejaVuSans-32"/>
      <use x="417.195312" xlink:href="#DejaVuSans-114"/>
      <use x="456.058594" xlink:href="#DejaVuSans-101"/>
      <use x="517.582031" xlink:href="#DejaVuSans-115"/>
      <use x="569.681641" xlink:href="#DejaVuSans-112"/>
      <use x="633.158203" xlink:href="#DejaVuSans-111"/>
      <use x="694.339844" xlink:href="#DejaVuSans-110"/>
      <use x="757.71875" xlink:href="#DejaVuSans-115"/>
      <use x="809.818359" xlink:href="#DejaVuSans-101"/>
     </g>
    </g>
   </g>
   <g id="matplotlib.axis_2">
    <g id="ytick_1">
     <g id="line2d_5">
      <defs>
       <path d="M 0 0 
L -3.5 0 
" id="m28a66ad7fa" style="stroke:#000000;stroke-width:0.8;"/>
      </defs>
      <g>
       <use style="stroke:#000000;stroke-width:0.8;" x="50.14375" xlink:href="#m28a66ad7fa" y="258.84327"/>
      </g>
     </g>
     <g id="text_6">
      <!-- 0.00 -->
      <g transform="translate(20.878125 262.642489)scale(0.1 -0.1)">
       <defs>
        <path d="M 10.6875 12.40625 
L 21 12.40625 
L 21 0 
L 10.6875 0 
z
" id="DejaVuSans-46"/>
       </defs>
       <use xlink:href="#DejaVuSans-48"/>
       <use x="63.623047" xlink:href="#DejaVuSans-46"/>
       <use x="95.410156" xlink:href="#DejaVuSans-48"/>
       <use x="159.033203" xlink:href="#DejaVuSans-48"/>
      </g>
     </g>
    </g>
    <g id="ytick_2">
     <g id="line2d_6">
      <g>
       <use style="stroke:#000000;stroke-width:0.8;" x="50.14375" xlink:href="#m28a66ad7fa" y="227.306584"/>
      </g>
     </g>
     <g id="text_7">
      <!-- 0.02 -->
      <g transform="translate(20.878125 231.105803)scale(0.1 -0.1)">
       <use xlink:href="#DejaVuSans-48"/>
       <use x="63.623047" xlink:href="#DejaVuSans-46"/>
       <use x="95.410156" xlink:href="#DejaVuSans-48"/>
       <use x="159.033203" xlink:href="#DejaVuSans-50"/>
      </g>
     </g>
    </g>
    <g id="ytick_3">
     <g id="line2d_7">
      <g>
       <use style="stroke:#000000;stroke-width:0.8;" x="50.14375" xlink:href="#m28a66ad7fa" y="195.769898"/>
      </g>
     </g>
     <g id="text_8">
      <!-- 0.04 -->
      <g transform="translate(20.878125 199.569117)scale(0.1 -0.1)">
       <defs>
        <path d="M 37.796875 64.3125 
L 12.890625 25.390625 
L 37.796875 25.390625 
z
M 35.203125 72.90625 
L 47.609375 72.90625 
L 47.609375 25.390625 
L 58.015625 25.390625 
L 58.015625 17.1875 
L 47.609375 17.1875 
L 47.609375 0 
L 37.796875 0 
L 37.796875 17.1875 
L 4.890625 17.1875 
L 4.890625 26.703125 
z
" id="DejaVuSans-52"/>
       </defs>
       <use xlink:href="#DejaVuSans-48"/>
       <use x="63.623047" xlink:href="#DejaVuSans-46"/>
       <use x="95.410156" xlink:href="#DejaVuSans-48"/>
       <use x="159.033203" xlink:href="#DejaVuSans-52"/>
      </g>
     </g>
    </g>
    <g id="ytick_4">
     <g id="line2d_8">
      <g>
       <use style="stroke:#000000;stroke-width:0.8;" x="50.14375" xlink:href="#m28a66ad7fa" y="164.233212"/>
      </g>
     </g>
     <g id="text_9">
      <!-- 0.06 -->
      <g transform="translate(20.878125 168.032431)scale(0.1 -0.1)">
       <defs>
        <path d="M 33.015625 40.375 
Q 26.375 40.375 22.484375 35.828125 
Q 18.609375 31.296875 18.609375 23.390625 
Q 18.609375 15.53125 22.484375 10.953125 
Q 26.375 6.390625 33.015625 6.390625 
Q 39.65625 6.390625 43.53125 10.953125 
Q 47.40625 15.53125 47.40625 23.390625 
Q 47.40625 31.296875 43.53125 35.828125 
Q 39.65625 40.375 33.015625 40.375 
z
M 52.59375 71.296875 
L 52.59375 62.3125 
Q 48.875 64.0625 45.09375 64.984375 
Q 41.3125 65.921875 37.59375 65.921875 
Q 27.828125 65.921875 22.671875 59.328125 
Q 17.53125 52.734375 16.796875 39.40625 
Q 19.671875 43.65625 24.015625 45.921875 
Q 28.375 48.1875 33.59375 48.1875 
Q 44.578125 48.1875 50.953125 41.515625 
Q 57.328125 34.859375 57.328125 23.390625 
Q 57.328125 12.15625 50.6875 5.359375 
Q 44.046875 -1.421875 33.015625 -1.421875 
Q 20.359375 -1.421875 13.671875 8.265625 
Q 6.984375 17.96875 6.984375 36.375 
Q 6.984375 53.65625 15.1875 63.9375 
Q 23.390625 74.21875 37.203125 74.21875 
Q 40.921875 74.21875 44.703125 73.484375 
Q 48.484375 72.75 52.59375 71.296875 
z
" id="DejaVuSans-54"/>
       </defs>
       <use xlink:href="#DejaVuSans-48"/>
       <use x="63.623047" xlink:href="#DejaVuSans-46"/>
       <use x="95.410156" xlink:href="#DejaVuSans-48"/>
       <use x="159.033203" xlink:href="#DejaVuSans-54"/>
      </g>
     </g>
    </g>
    <g id="ytick_5">
     <g id="line2d_9">
      <g>
       <use style="stroke:#000000;stroke-width:0.8;" x="50.14375" xlink:href="#m28a66ad7fa" y="132.696526"/>
      </g>
     </g>
     <g id="text_10">
      <!-- 0.08 -->
      <g transform="translate(20.878125 136.495745)scale(0.1 -0.1)">
       <defs>
        <path d="M 31.78125 34.625 
Q 24.75 34.625 20.71875 30.859375 
Q 16.703125 27.09375 16.703125 20.515625 
Q 16.703125 13.921875 20.71875 10.15625 
Q 24.75 6.390625 31.78125 6.390625 
Q 38.8125 6.390625 42.859375 10.171875 
Q 46.921875 13.96875 46.921875 20.515625 
Q 46.921875 27.09375 42.890625 30.859375 
Q 38.875 34.625 31.78125 34.625 
z
M 21.921875 38.8125 
Q 15.578125 40.375 12.03125 44.71875 
Q 8.5 49.078125 8.5 55.328125 
Q 8.5 64.0625 14.71875 69.140625 
Q 20.953125 74.21875 31.78125 74.21875 
Q 42.671875 74.21875 48.875 69.140625 
Q 55.078125 64.0625 55.078125 55.328125 
Q 55.078125 49.078125 51.53125 44.71875 
Q 48 40.375 41.703125 38.8125 
Q 48.828125 37.15625 52.796875 32.3125 
Q 56.78125 27.484375 56.78125 20.515625 
Q 56.78125 9.90625 50.3125 4.234375 
Q 43.84375 -1.421875 31.78125 -1.421875 
Q 19.734375 -1.421875 13.25 4.234375 
Q 6.78125 9.90625 6.78125 20.515625 
Q 6.78125 27.484375 10.78125 32.3125 
Q 14.796875 37.15625 21.921875 38.8125 
z
M 18.3125 54.390625 
Q 18.3125 48.734375 21.84375 45.5625 
Q 25.390625 42.390625 31.78125 42.390625 
Q 38.140625 42.390625 41.71875 45.5625 
Q 45.3125 48.734375 45.3125 54.390625 
Q 45.3125 60.0625 41.71875 63.234375 
Q 38.140625 66.40625 31.78125 66.40625 
Q 25.390625 66.40625 21.84375 63.234375 
Q 18.3125 60.0625 18.3125 54.390625 
z
" id="DejaVuSans-56"/>
       </defs>
       <use xlink:href="#DejaVuSans-48"/>
       <use x="63.623047" xlink:href="#DejaVuSans-46"/>
       <use x="95.410156" xlink:href="#DejaVuSans-48"/>
       <use x="159.033203" xlink:href="#DejaVuSans-56"/>
      </g>
     </g>
    </g>
    <g id="ytick_6">
     <g id="line2d_10">
      <g>
       <use style="stroke:#000000;stroke-width:0.8;" x="50.14375" xlink:href="#m28a66ad7fa" y="101.15984"/>
      </g>
     </g>
     <g id="text_11">
      <!-- 0.10 -->
      <g transform="translate(20.878125 104.959059)scale(0.1 -0.1)">
       <use xlink:href="#DejaVuSans-48"/>
       <use x="63.623047" xlink:href="#DejaVuSans-46"/>
       <use x="95.410156" xlink:href="#DejaVuSans-49"/>
       <use x="159.033203" xlink:href="#DejaVuSans-48"/>
      </g>
     </g>
    </g>
    <g id="ytick_7">
     <g id="line2d_11">
      <g>
       <use style="stroke:#000000;stroke-width:0.8;" x="50.14375" xlink:href="#m28a66ad7fa" y="69.623154"/>
      </g>
     </g>
     <g id="text_12">
      <!-- 0.12 -->
      <g transform="translate(20.878125 73.422373)scale(0.1 -0.1)">
       <use xlink:href="#DejaVuSans-48"/>
       <use x="63.623047" xlink:href="#DejaVuSans-46"/>
       <use x="95.410156" xlink:href="#DejaVuSans-49"/>
       <use x="159.033203" xlink:href="#DejaVuSans-50"/>
      </g>
     </g>
    </g>
    <g id="ytick_8">
     <g id="line2d_12">
      <g>
       <use style="stroke:#000000;stroke-width:0.8;" x="50.14375" xlink:href="#m28a66ad7fa" y="38.086468"/>
      </g>
     </g>
     <g id="text_13">
      <!-- 0.14 -->
      <g transform="translate(20.878125 41.885687)scale(0.1 -0.1)">
       <use xlink:href="#DejaVuSans-48"/>
       <use x="63.623047" xlink:href="#DejaVuSans-46"/>
       <use x="95.410156" xlink:href="#DejaVuSans-49"/>
       <use x="159.033203" xlink:href="#DejaVuSans-52"/>
      </g>
     </g>
    </g>
    <g id="text_14">
     <!-- Probability -->
     <g transform="translate(14.798438 167.009604)rotate(-90)scale(0.1 -0.1)">
      <defs>
       <path d="M 19.671875 64.796875 
L 19.671875 37.40625 
L 32.078125 37.40625 
Q 38.96875 37.40625 42.71875 40.96875 
Q 46.484375 44.53125 46.484375 51.125 
Q 46.484375 57.671875 42.71875 61.234375 
Q 38.96875 64.796875 32.078125 64.796875 
z
M 9.8125 72.90625 
L 32.078125 72.90625 
Q 44.34375 72.90625 50.609375 67.359375 
Q 56.890625 61.8125 56.890625 51.125 
Q 56.890625 40.328125 50.609375 34.8125 
Q 44.34375 29.296875 32.078125 29.296875 
L 19.671875 29.296875 
L 19.671875 0 
L 9.8125 0 
z
" id="DejaVuSans-80"/>
       <path d="M 48.6875 27.296875 
Q 48.6875 37.203125 44.609375 42.84375 
Q 40.53125 48.484375 33.40625 48.484375 
Q 26.265625 48.484375 22.1875 42.84375 
Q 18.109375 37.203125 18.109375 27.296875 
Q 18.109375 17.390625 22.1875 11.75 
Q 26.265625 6.109375 33.40625 6.109375 
Q 40.53125 6.109375 44.609375 11.75 
Q 48.6875 17.390625 48.6875 27.296875 
z
M 18.109375 46.390625 
Q 20.953125 51.265625 25.265625 53.625 
Q 29.59375 56 35.59375 56 
Q 45.5625 56 51.78125 48.09375 
Q 58.015625 40.1875 58.015625 27.296875 
Q 58.015625 14.40625 51.78125 6.484375 
Q 45.5625 -1.421875 35.59375 -1.421875 
Q 29.59375 -1.421875 25.265625 0.953125 
Q 20.953125 3.328125 18.109375 8.203125 
L 18.109375 0 
L 9.078125 0 
L 9.078125 75.984375 
L 18.109375 75.984375 
z
" id="DejaVuSans-98"/>
       <path d="M 9.421875 54.6875 
L 18.40625 54.6875 
L 18.40625 0 
L 9.421875 0 
z
M 9.421875 75.984375 
L 18.40625 75.984375 
L 18.40625 64.59375 
L 9.421875 64.59375 
z
" id="DejaVuSans-105"/>
       <path d="M 32.171875 -5.078125 
Q 28.375 -14.84375 24.75 -17.8125 
Q 21.140625 -20.796875 15.09375 -20.796875 
L 7.90625 -20.796875 
L 7.90625 -13.28125 
L 13.1875 -13.28125 
Q 16.890625 -13.28125 18.9375 -11.515625 
Q 21 -9.765625 23.484375 -3.21875 
L 25.09375 0.875 
L 2.984375 54.6875 
L 12.5 54.6875 
L 29.59375 11.921875 
L 46.6875 54.6875 
L 56.203125 54.6875 
z
" id="DejaVuSans-121"/>
      </defs>
      <use xlink:href="#DejaVuSans-80"/>
      <use x="58.552734" xlink:href="#DejaVuSans-114"/>
      <use x="97.416016" xlink:href="#DejaVuSans-111"/>
      <use x="158.597656" xlink:href="#DejaVuSans-98"/>
      <use x="222.074219" xlink:href="#DejaVuSans-97"/>
      <use x="283.353516" xlink:href="#DejaVuSans-98"/>
      <use x="346.830078" xlink:href="#DejaVuSans-105"/>
      <use x="374.613281" xlink:href="#DejaVuSans-108"/>
      <use x="402.396484" xlink:href="#DejaVuSans-105"/>
      <use x="430.179688" xlink:href="#DejaVuSans-116"/>
      <use x="469.388672" xlink:href="#DejaVuSans-121"/>
     </g>
    </g>
   </g>
   <g id="line2d_13">
    <path clip-path="url(#pd6ca3e421a)" d="M 60.879012 258.824811 
L 63.047752 258.814956 
L 65.216492 258.800281 
L 67.385232 258.778662 
L 69.553972 258.747156 
L 71.722712 258.701739 
L 73.891451 258.636976 
L 76.060191 258.54563 
L 78.228931 258.418197 
L 80.397671 258.242366 
L 82.566411 258.002425 
L 84.735151 257.67862 
L 86.903891 257.246495 
L 89.07263 256.67626 
L 91.24137 255.932238 
L 93.41011 254.972459 
L 95.57885 253.748486 
L 97.74759 252.205557 
L 99.91633 250.283145 
L 102.085069 247.916028 
L 104.253809 245.035933 
L 106.422549 241.573835 
L 108.591289 237.462899 
L 110.760029 232.642068 
L 112.928769 227.060184 
L 115.097509 220.680509 
L 117.266248 213.485427 
L 119.434988 205.481052 
L 121.603728 196.701413 
L 123.772468 187.211868 
L 125.941208 177.111377 
L 128.109948 166.533315 
L 130.278688 155.644529 
L 132.447427 144.642474 
L 134.616167 133.750347 
L 136.784907 123.210315 
L 138.953647 113.275045 
L 141.122387 104.197936 
L 143.291127 96.22253 
L 145.459867 89.571739 
L 147.628606 84.437526 
L 149.797346 80.971706 
L 151.966086 79.278497 
L 154.134826 79.409315 
L 156.303566 81.360173 
L 158.472306 85.071894 
L 160.641046 90.433083 
L 162.809785 97.285685 
L 164.978525 105.432721 
L 167.147265 114.647683 
L 169.316005 124.684956 
L 171.484745 135.290613 
L 173.653485 146.212913 
L 175.822224 157.211916 
L 177.990964 168.067731 
L 180.159704 178.587025 
L 182.328444 188.607602 
L 184.497184 198.000992 
L 186.665924 206.673119 
L 188.834664 214.563271 
L 191.003403 221.641639 
L 193.172143 227.905769 
L 195.340883 233.376295 
L 197.509623 238.092301 
L 199.678363 242.106631 
L 201.847103 245.481407 
L 204.015843 248.283982 
L 206.184582 250.583439 
L 208.353322 252.44774 
L 210.522062 253.941524 
L 212.690802 255.124546 
L 214.859542 256.050688 
L 217.028282 256.767464 
L 219.197022 257.315927 
L 221.365761 257.730885 
L 223.534501 258.041328 
L 225.703241 258.271002 
L 227.871981 258.439044 
L 230.040721 258.56064 
L 232.209461 258.647664 
L 234.378201 258.709267 
L 236.54694 258.752401 
L 238.71568 258.782276 
L 240.88442 258.802745 
L 243.05316 258.816618 
L 245.2219 258.82592 
L 247.39064 258.83209 
L 249.559379 258.836139 
L 251.728119 258.838768 
L 253.896859 258.840456 
L 256.065599 258.841529 
L 258.234339 258.842204 
L 260.403079 258.842624 
L 262.571819 258.842882 
L 264.740558 258.84304 
L 266.909298 258.843135 
L 269.078038 258.843191 
L 271.246778 258.843225 
L 273.415518 258.843244 
L 275.584258 258.843255 
" style="fill:none;stroke:#1f77b4;stroke-linecap:square;stroke-width:1.5;"/>
   </g>
   <g id="line2d_14">
    <path clip-path="url(#pd6ca3e421a)" d="M 60.879012 258.842945 
L 63.047752 258.842727 
L 65.216492 258.842371 
L 67.385232 258.841797 
L 69.553972 258.840881 
L 71.722712 258.839433 
L 73.891451 258.837172 
L 76.060191 258.833676 
L 78.228931 258.828329 
L 80.397671 258.820239 
L 82.566411 258.808128 
L 84.735151 258.790193 
L 86.903891 258.763919 
L 89.07263 258.725842 
L 91.24137 258.671257 
L 93.41011 258.593858 
L 95.57885 258.485304 
L 97.74759 258.334718 
L 99.91633 258.128118 
L 102.085069 257.847795 
L 104.253809 257.47166 
L 106.422549 256.972587 
L 108.591289 256.317821 
L 110.760029 255.468487 
L 112.928769 254.379293 
L 115.097509 252.998507 
L 117.266248 251.268303 
L 119.434988 249.12557 
L 121.603728 246.503272 
L 123.772468 243.332421 
L 125.941208 239.544708 
L 128.109948 235.075788 
L 130.278688 229.869148 
L 132.447427 223.880464 
L 134.616167 217.082246 
L 136.784907 209.468524 
L 138.953647 201.059285 
L 141.122387 191.904307 
L 143.291127 182.086031 
L 145.459867 171.721119 
L 147.628606 160.960398 
L 149.797346 149.986937 
L 151.966086 139.012164 
L 154.134826 128.26999 
L 156.303566 118.009134 
L 158.472306 108.483923 
L 160.641046 99.944036 
L 162.809785 92.62374 
L 164.978525 86.73126 
L 167.147265 82.438967 
L 169.316005 79.874996 
L 171.484745 79.1169 
L 173.653485 80.187754 
L 175.822224 83.054984 
L 177.990964 87.632015 
L 180.159704 93.782614 
L 182.328444 101.327625 
L 184.497184 110.053627 
L 186.665924 119.722945 
L 188.834664 130.084345 
L 191.003403 140.883755 
L 193.172143 151.874381 
L 195.340883 162.825664 
L 197.509623 173.530679 
L 199.678363 183.811659 
L 201.847103 193.523555 
L 204.015843 202.555613 
L 206.184582 210.831144 
L 208.353322 218.305713 
L 210.522062 224.964074 
L 212.690802 230.816214 
L 214.859542 235.892844 
L 217.028282 240.240702 
L 219.197022 243.917941 
L 221.365761 246.989846 
L 223.534501 249.525058 
L 225.703241 251.592398 
L 227.871981 253.258353 
L 230.040721 254.585206 
L 232.209461 255.629784 
L 234.378201 256.442727 
L 236.54694 257.068216 
L 238.71568 257.544051 
L 240.88442 257.901983 
L 243.05316 258.168228 
L 245.2219 258.364079 
L 247.39064 258.506561 
L 249.559379 258.609079 
L 251.728119 258.682037 
L 253.896859 258.733393 
L 256.065599 258.769151 
L 258.234339 258.79378 
L 260.403079 258.81056 
L 262.571819 258.82187 
L 264.740558 258.829412 
L 266.909298 258.834387 
L 269.078038 258.837634 
L 271.246778 258.83973 
L 273.415518 258.841069 
L 275.584258 258.841916 
" style="fill:none;stroke:#ff0000;stroke-linecap:square;stroke-width:1.5;"/>
   </g>
   <g id="patch_3">
    <path d="M 50.14375 258.84327 
L 50.14375 22.318125 
" style="fill:none;stroke:#000000;stroke-linecap:square;stroke-linejoin:miter;stroke-width:0.8;"/>
   </g>
   <g id="patch_4">
    <path d="M 286.31952 258.84327 
L 286.31952 22.318125 
" style="fill:none;stroke:#000000;stroke-linecap:square;stroke-linejoin:miter;stroke-width:0.8;"/>
   </g>
   <g id="patch_5">
    <path d="M 50.14375 258.84327 
L 286.31952 258.84327 
" style="fill:none;stroke:#000000;stroke-linecap:square;stroke-linejoin:miter;stroke-width:0.8;"/>
   </g>
   <g id="patch_6">
    <path d="M 50.14375 22.318125 
L 286.31952 22.318125 
" style="fill:none;stroke:#000000;stroke-linecap:square;stroke-linejoin:miter;stroke-width:0.8;"/>
   </g>
   <g id="text_15">
    <!-- High noise, lots of overlap -->
    <g transform="translate(89.815385 16.318125)scale(0.12 -0.12)">
     <defs>
      <path d="M 9.8125 72.90625 
L 19.671875 72.90625 
L 19.671875 43.015625 
L 55.515625 43.015625 
L 55.515625 72.90625 
L 65.375 72.90625 
L 65.375 0 
L 55.515625 0 
L 55.515625 34.71875 
L 19.671875 34.71875 
L 19.671875 0 
L 9.8125 0 
z
" id="DejaVuSans-72"/>
      <path d="M 45.40625 27.984375 
Q 45.40625 37.75 41.375 43.109375 
Q 37.359375 48.484375 30.078125 48.484375 
Q 22.859375 48.484375 18.828125 43.109375 
Q 14.796875 37.75 14.796875 27.984375 
Q 14.796875 18.265625 18.828125 12.890625 
Q 22.859375 7.515625 30.078125 7.515625 
Q 37.359375 7.515625 41.375 12.890625 
Q 45.40625 18.265625 45.40625 27.984375 
z
M 54.390625 6.78125 
Q 54.390625 -7.171875 48.1875 -13.984375 
Q 42 -20.796875 29.203125 -20.796875 
Q 24.46875 -20.796875 20.265625 -20.09375 
Q 16.0625 -19.390625 12.109375 -17.921875 
L 12.109375 -9.1875 
Q 16.0625 -11.328125 19.921875 -12.34375 
Q 23.78125 -13.375 27.78125 -13.375 
Q 36.625 -13.375 41.015625 -8.765625 
Q 45.40625 -4.15625 45.40625 5.171875 
L 45.40625 9.625 
Q 42.625 4.78125 38.28125 2.390625 
Q 33.9375 0 27.875 0 
Q 17.828125 0 11.671875 7.65625 
Q 5.515625 15.328125 5.515625 27.984375 
Q 5.515625 40.671875 11.671875 48.328125 
Q 17.828125 56 27.875 56 
Q 33.9375 56 38.28125 53.609375 
Q 42.625 51.21875 45.40625 46.390625 
L 45.40625 54.6875 
L 54.390625 54.6875 
z
" id="DejaVuSans-103"/>
      <path d="M 54.890625 33.015625 
L 54.890625 0 
L 45.90625 0 
L 45.90625 32.71875 
Q 45.90625 40.484375 42.875 44.328125 
Q 39.84375 48.1875 33.796875 48.1875 
Q 26.515625 48.1875 22.3125 43.546875 
Q 18.109375 38.921875 18.109375 30.90625 
L 18.109375 0 
L 9.078125 0 
L 9.078125 75.984375 
L 18.109375 75.984375 
L 18.109375 46.1875 
Q 21.34375 51.125 25.703125 53.5625 
Q 30.078125 56 35.796875 56 
Q 45.21875 56 50.046875 50.171875 
Q 54.890625 44.34375 54.890625 33.015625 
z
" id="DejaVuSans-104"/>
      <path d="M 11.71875 12.40625 
L 22.015625 12.40625 
L 22.015625 4 
L 14.015625 -11.625 
L 7.71875 -11.625 
L 11.71875 4 
z
" id="DejaVuSans-44"/>
      <path d="M 37.109375 75.984375 
L 37.109375 68.5 
L 28.515625 68.5 
Q 23.6875 68.5 21.796875 66.546875 
Q 19.921875 64.59375 19.921875 59.515625 
L 19.921875 54.6875 
L 34.71875 54.6875 
L 34.71875 47.703125 
L 19.921875 47.703125 
L 19.921875 0 
L 10.890625 0 
L 10.890625 47.703125 
L 2.296875 47.703125 
L 2.296875 54.6875 
L 10.890625 54.6875 
L 10.890625 58.5 
Q 10.890625 67.625 15.140625 71.796875 
Q 19.390625 75.984375 28.609375 75.984375 
z
" id="DejaVuSans-102"/>
      <path d="M 2.984375 54.6875 
L 12.5 54.6875 
L 29.59375 8.796875 
L 46.6875 54.6875 
L 56.203125 54.6875 
L 35.6875 0 
L 23.484375 0 
z
" id="DejaVuSans-118"/>
     </defs>
     <use xlink:href="#DejaVuSans-72"/>
     <use x="75.195312" xlink:href="#DejaVuSans-105"/>
     <use x="102.978516" xlink:href="#DejaVuSans-103"/>
     <use x="166.455078" xlink:href="#DejaVuSans-104"/>
     <use x="229.833984" xlink:href="#DejaVuSans-32"/>
     <use x="261.621094" xlink:href="#DejaVuSans-110"/>
     <use x="325" xlink:href="#DejaVuSans-111"/>
     <use x="386.181641" xlink:href="#DejaVuSans-105"/>
     <use x="413.964844" xlink:href="#DejaVuSans-115"/>
     <use x="466.064453" xlink:href="#DejaVuSans-101"/>
     <use x="527.587891" xlink:href="#DejaVuSans-44"/>
     <use x="559.375" xlink:href="#DejaVuSans-32"/>
     <use x="591.162109" xlink:href="#DejaVuSans-108"/>
     <use x="618.945312" xlink:href="#DejaVuSans-111"/>
     <use x="680.126953" xlink:href="#DejaVuSans-116"/>
     <use x="719.335938" xlink:href="#DejaVuSans-115"/>
     <use x="771.435547" xlink:href="#DejaVuSans-32"/>
     <use x="803.222656" xlink:href="#DejaVuSans-111"/>
     <use x="864.404297" xlink:href="#DejaVuSans-102"/>
     <use x="899.609375" xlink:href="#DejaVuSans-32"/>
     <use x="931.396484" xlink:href="#DejaVuSans-111"/>
     <use x="992.578125" xlink:href="#DejaVuSans-118"/>
     <use x="1051.757812" xlink:href="#DejaVuSans-101"/>
     <use x="1113.28125" xlink:href="#DejaVuSans-114"/>
     <use x="1154.394531" xlink:href="#DejaVuSans-108"/>
     <use x="1182.177734" xlink:href="#DejaVuSans-97"/>
     <use x="1243.457031" xlink:href="#DejaVuSans-112"/>
    </g>
   </g>
  </g>
  <g id="axes_2">
   <g id="patch_7">
    <path d="M 341.02375 258.84327 
L 577.19952 258.84327 
L 577.19952 22.318125 
L 341.02375 22.318125 
z
" style="fill:#ffffff;"/>
   </g>
   <g id="PolyCollection_3">
    <path clip-path="url(#p4948f460ff)" d="M 351.759012 258.84327 
L 351.759012 258.84327 
L 353.927752 258.84327 
L 356.096492 258.84327 
L 358.265232 258.84327 
L 360.433972 258.84327 
L 362.602712 258.84327 
L 364.771451 258.84327 
L 366.940191 258.84327 
L 369.108931 258.84327 
L 371.277671 258.843269 
L 373.446411 258.843269 
L 375.615151 258.843268 
L 377.783891 258.843266 
L 379.95263 258.843263 
L 382.12137 258.843257 
L 384.29011 258.843246 
L 386.45885 258.843228 
L 388.62759 258.843197 
L 390.79633 258.843145 
L 392.965069 258.843056 
L 395.133809 258.84291 
L 397.302549 258.842669 
L 399.471289 258.842277 
L 401.640029 258.841646 
L 403.808769 258.840641 
L 405.977509 258.839057 
L 408.146248 258.836588 
L 410.314988 258.832779 
L 412.483728 258.826965 
L 414.652468 258.818188 
L 416.821208 258.805076 
L 418.989948 258.785701 
L 421.158688 258.757378 
L 423.327427 258.716422 
L 425.496167 258.657837 
L 427.664907 258.574948 
L 429.833647 258.458948 
L 432.002387 258.298388 
L 434.171127 258.078591 
L 436.339867 257.781025 
L 438.508606 257.382644 
L 440.677346 256.855242 
L 442.846086 256.164876 
L 445.014826 255.271401 
L 447.183566 254.12823 
L 449.352306 252.68237 
L 451.521046 250.874858 
L 453.689785 248.64167 
L 455.858525 245.9152 
L 458.027265 242.626366 
L 460.196005 238.707368 
L 462.364745 234.0951 
L 464.533485 228.735127 
L 466.702224 222.586114 
L 468.870964 215.624503 
L 471.039704 207.849175 
L 473.208444 199.285795 
L 475.377184 189.99048 
L 477.545924 180.052438 
L 479.714664 169.595227 
L 481.883403 158.776336 
L 484.052143 147.784883 
L 486.220883 136.837321 
L 488.389623 126.171193 
L 490.558363 116.037116 
L 492.727103 106.689333 
L 494.895843 98.375306 
L 497.064582 91.324928 
L 499.233322 85.740003 
L 501.402062 81.784664 
L 503.570802 79.577368 
L 505.739542 79.184998 
L 507.908282 80.619503 
L 510.077022 83.837286 
L 512.245761 88.741414 
L 514.414501 95.18646 
L 516.583241 102.985669 
L 518.751981 111.919938 
L 520.920721 121.748014 
L 523.089461 132.217249 
L 525.258201 143.074247 
L 527.42694 154.074788 
L 529.59568 164.992506 
L 531.76442 175.625926 
L 533.93316 185.803607 
L 536.1019 195.387291 
L 538.27064 204.273112 
L 540.439379 212.39102 
L 542.608119 219.702698 
L 544.776859 226.198286 
L 546.945599 231.892286 
L 549.114339 236.818993 
L 551.283079 241.027788 
L 553.451819 244.578579 
L 555.620558 247.537607 
L 557.789298 249.973781 
L 559.958038 251.955637 
L 562.126778 253.548948 
L 564.295518 254.814991 
L 566.464258 255.809396 
L 566.464258 255.809396 
L 566.464258 258.84327 
L 564.295518 258.84327 
L 562.126778 258.84327 
L 559.958038 258.84327 
L 557.789298 258.84327 
L 555.620558 258.84327 
L 553.451819 258.84327 
L 551.283079 258.84327 
L 549.114339 258.84327 
L 546.945599 258.84327 
L 544.776859 258.84327 
L 542.608119 258.84327 
L 540.439379 258.84327 
L 538.27064 258.84327 
L 536.1019 258.84327 
L 533.93316 258.84327 
L 531.76442 258.84327 
L 529.59568 258.84327 
L 527.42694 258.84327 
L 525.258201 258.84327 
L 523.089461 258.84327 
L 520.920721 258.84327 
L 518.751981 258.84327 
L 516.583241 258.84327 
L 514.414501 258.84327 
L 512.245761 258.84327 
L 510.077022 258.84327 
L 507.908282 258.84327 
L 505.739542 258.84327 
L 503.570802 258.84327 
L 501.402062 258.84327 
L 499.233322 258.84327 
L 497.064582 258.84327 
L 494.895843 258.84327 
L 492.727103 258.84327 
L 490.558363 258.84327 
L 488.389623 258.84327 
L 486.220883 258.84327 
L 484.052143 258.84327 
L 481.883403 258.84327 
L 479.714664 258.84327 
L 477.545924 258.84327 
L 475.377184 258.84327 
L 473.208444 258.84327 
L 471.039704 258.84327 
L 468.870964 258.84327 
L 466.702224 258.84327 
L 464.533485 258.84327 
L 462.364745 258.84327 
L 460.196005 258.84327 
L 458.027265 258.84327 
L 455.858525 258.84327 
L 453.689785 258.84327 
L 451.521046 258.84327 
L 449.352306 258.84327 
L 447.183566 258.84327 
L 445.014826 258.84327 
L 442.846086 258.84327 
L 440.677346 258.84327 
L 438.508606 258.84327 
L 436.339867 258.84327 
L 434.171127 258.84327 
L 432.002387 258.84327 
L 429.833647 258.84327 
L 427.664907 258.84327 
L 425.496167 258.84327 
L 423.327427 258.84327 
L 421.158688 258.84327 
L 418.989948 258.84327 
L 416.821208 258.84327 
L 414.652468 258.84327 
L 412.483728 258.84327 
L 410.314988 258.84327 
L 408.146248 258.84327 
L 405.977509 258.84327 
L 403.808769 258.84327 
L 401.640029 258.84327 
L 399.471289 258.84327 
L 397.302549 258.84327 
L 395.133809 258.84327 
L 392.965069 258.84327 
L 390.79633 258.84327 
L 388.62759 258.84327 
L 386.45885 258.84327 
L 384.29011 258.84327 
L 382.12137 258.84327 
L 379.95263 258.84327 
L 377.783891 258.84327 
L 375.615151 258.84327 
L 373.446411 258.84327 
L 371.277671 258.84327 
L 369.108931 258.84327 
L 366.940191 258.84327 
L 364.771451 258.84327 
L 362.602712 258.84327 
L 360.433972 258.84327 
L 358.265232 258.84327 
L 356.096492 258.84327 
L 353.927752 258.84327 
L 351.759012 258.84327 
z
" style="fill:#ffc0cb;fill-opacity:0.2;"/>
   </g>
   <g id="PolyCollection_4">
    <path clip-path="url(#p4948f460ff)" d="M 351.759012 258.824811 
L 351.759012 258.824811 
L 353.927752 258.814956 
L 356.096492 258.800281 
L 358.265232 258.778662 
L 360.433972 258.747156 
L 362.602712 258.701739 
L 364.771451 258.636976 
L 366.940191 258.54563 
L 369.108931 258.418197 
L 371.277671 258.242366 
L 373.446411 258.002425 
L 375.615151 257.67862 
L 377.783891 257.246495 
L 379.95263 256.67626 
L 382.12137 255.932238 
L 384.29011 254.972459 
L 386.45885 253.748486 
L 388.62759 252.205557 
L 390.79633 250.283145 
L 392.965069 247.916028 
L 395.133809 245.035933 
L 397.302549 241.573835 
L 399.471289 237.462899 
L 401.640029 232.642068 
L 403.808769 227.060184 
L 405.977509 220.680509 
L 408.146248 213.485427 
L 410.314988 205.481052 
L 412.483728 196.701413 
L 414.652468 187.211868 
L 416.821208 177.111377 
L 418.989948 166.533315 
L 421.158688 155.644529 
L 423.327427 144.642474 
L 425.496167 133.750347 
L 427.664907 123.210315 
L 429.833647 113.275045 
L 432.002387 104.197936 
L 434.171127 96.22253 
L 436.339867 89.571739 
L 438.508606 84.437526 
L 440.677346 80.971706 
L 442.846086 79.278497 
L 445.014826 79.409315 
L 447.183566 81.360173 
L 449.352306 85.071894 
L 451.521046 90.433083 
L 453.689785 97.285685 
L 455.858525 105.432721 
L 458.027265 114.647683 
L 460.196005 124.684956 
L 462.364745 135.290613 
L 464.533485 146.212913 
L 466.702224 157.211916 
L 468.870964 168.067731 
L 471.039704 178.587025 
L 473.208444 188.607602 
L 475.377184 198.000992 
L 477.545924 206.673119 
L 479.714664 214.563271 
L 481.883403 221.641639 
L 484.052143 227.905769 
L 486.220883 233.376295 
L 488.389623 238.092301 
L 490.558363 242.106631 
L 492.727103 245.481407 
L 494.895843 248.283982 
L 497.064582 250.583439 
L 499.233322 252.44774 
L 501.402062 253.941524 
L 503.570802 255.124546 
L 505.739542 256.050688 
L 507.908282 256.767464 
L 510.077022 257.315927 
L 512.245761 257.730885 
L 514.414501 258.041328 
L 516.583241 258.271002 
L 518.751981 258.439044 
L 520.920721 258.56064 
L 523.089461 258.647664 
L 525.258201 258.709267 
L 527.42694 258.752401 
L 529.59568 258.782276 
L 531.76442 258.802745 
L 533.93316 258.816618 
L 536.1019 258.82592 
L 538.27064 258.83209 
L 540.439379 258.836139 
L 542.608119 258.838768 
L 544.776859 258.840456 
L 546.945599 258.841529 
L 549.114339 258.842204 
L 551.283079 258.842624 
L 553.451819 258.842882 
L 555.620558 258.84304 
L 557.789298 258.843135 
L 559.958038 258.843191 
L 562.126778 258.843225 
L 564.295518 258.843244 
L 566.464258 258.843255 
L 566.464258 258.843255 
L 566.464258 258.84327 
L 564.295518 258.84327 
L 562.126778 258.84327 
L 559.958038 258.84327 
L 557.789298 258.84327 
L 555.620558 258.84327 
L 553.451819 258.84327 
L 551.283079 258.84327 
L 549.114339 258.84327 
L 546.945599 258.84327 
L 544.776859 258.84327 
L 542.608119 258.84327 
L 540.439379 258.84327 
L 538.27064 258.84327 
L 536.1019 258.84327 
L 533.93316 258.84327 
L 531.76442 258.84327 
L 529.59568 258.84327 
L 527.42694 258.84327 
L 525.258201 258.84327 
L 523.089461 258.84327 
L 520.920721 258.84327 
L 518.751981 258.84327 
L 516.583241 258.84327 
L 514.414501 258.84327 
L 512.245761 258.84327 
L 510.077022 258.84327 
L 507.908282 258.84327 
L 505.739542 258.84327 
L 503.570802 258.84327 
L 501.402062 258.84327 
L 499.233322 258.84327 
L 497.064582 258.84327 
L 494.895843 258.84327 
L 492.727103 258.84327 
L 490.558363 258.84327 
L 488.389623 258.84327 
L 486.220883 258.84327 
L 484.052143 258.84327 
L 481.883403 258.84327 
L 479.714664 258.84327 
L 477.545924 258.84327 
L 475.377184 258.84327 
L 473.208444 258.84327 
L 471.039704 258.84327 
L 468.870964 258.84327 
L 466.702224 258.84327 
L 464.533485 258.84327 
L 462.364745 258.84327 
L 460.196005 258.84327 
L 458.027265 258.84327 
L 455.858525 258.84327 
L 453.689785 258.84327 
L 451.521046 258.84327 
L 449.352306 258.84327 
L 447.183566 258.84327 
L 445.014826 258.84327 
L 442.846086 258.84327 
L 440.677346 258.84327 
L 438.508606 258.84327 
L 436.339867 258.84327 
L 434.171127 258.84327 
L 432.002387 258.84327 
L 429.833647 258.84327 
L 427.664907 258.84327 
L 425.496167 258.84327 
L 423.327427 258.84327 
L 421.158688 258.84327 
L 418.989948 258.84327 
L 416.821208 258.84327 
L 414.652468 258.84327 
L 412.483728 258.84327 
L 410.314988 258.84327 
L 408.146248 258.84327 
L 405.977509 258.84327 
L 403.808769 258.84327 
L 401.640029 258.84327 
L 399.471289 258.84327 
L 397.302549 258.84327 
L 395.133809 258.84327 
L 392.965069 258.84327 
L 390.79633 258.84327 
L 388.62759 258.84327 
L 386.45885 258.84327 
L 384.29011 258.84327 
L 382.12137 258.84327 
L 379.95263 258.84327 
L 377.783891 258.84327 
L 375.615151 258.84327 
L 373.446411 258.84327 
L 371.277671 258.84327 
L 369.108931 258.84327 
L 366.940191 258.84327 
L 364.771451 258.84327 
L 362.602712 258.84327 
L 360.433972 258.84327 
L 358.265232 258.84327 
L 356.096492 258.84327 
L 353.927752 258.84327 
L 351.759012 258.84327 
z
" style="fill:#add8e6;fill-opacity:0.2;"/>
   </g>
   <g id="matplotlib.axis_3">
    <g id="xtick_5">
     <g id="line2d_15">
      <g>
       <use style="stroke:#000000;stroke-width:0.8;" x="382.43119" xlink:href="#m084fd0ea39" y="258.84327"/>
      </g>
     </g>
     <g id="text_16">
      <!-- 0 -->
      <g transform="translate(379.24994 273.441707)scale(0.1 -0.1)">
       <use xlink:href="#DejaVuSans-48"/>
      </g>
     </g>
    </g>
    <g id="xtick_6">
     <g id="line2d_16">
      <g>
       <use style="stroke:#000000;stroke-width:0.8;" x="443.775546" xlink:href="#m084fd0ea39" y="258.84327"/>
      </g>
     </g>
     <g id="text_17">
      <!-- 10 -->
      <g transform="translate(437.413046 273.441707)scale(0.1 -0.1)">
       <use xlink:href="#DejaVuSans-49"/>
       <use x="63.623047" xlink:href="#DejaVuSans-48"/>
      </g>
     </g>
    </g>
    <g id="xtick_7">
     <g id="line2d_17">
      <g>
       <use style="stroke:#000000;stroke-width:0.8;" x="505.119902" xlink:href="#m084fd0ea39" y="258.84327"/>
      </g>
     </g>
     <g id="text_18">
      <!-- 20 -->
      <g transform="translate(498.757402 273.441707)scale(0.1 -0.1)">
       <use xlink:href="#DejaVuSans-50"/>
       <use x="63.623047" xlink:href="#DejaVuSans-48"/>
      </g>
     </g>
    </g>
    <g id="xtick_8">
     <g id="line2d_18">
      <g>
       <use style="stroke:#000000;stroke-width:0.8;" x="566.464258" xlink:href="#m084fd0ea39" y="258.84327"/>
      </g>
     </g>
     <g id="text_19">
      <!-- 30 -->
      <g transform="translate(560.101758 273.441707)scale(0.1 -0.1)">
       <use xlink:href="#DejaVuSans-51"/>
       <use x="63.623047" xlink:href="#DejaVuSans-48"/>
      </g>
     </g>
    </g>
    <g id="text_20">
     <!-- Internal response -->
     <g transform="translate(415.544448 287.119832)scale(0.1 -0.1)">
      <use xlink:href="#DejaVuSans-73"/>
      <use x="29.492188" xlink:href="#DejaVuSans-110"/>
      <use x="92.871094" xlink:href="#DejaVuSans-116"/>
      <use x="132.080078" xlink:href="#DejaVuSans-101"/>
      <use x="193.603516" xlink:href="#DejaVuSans-114"/>
      <use x="232.966797" xlink:href="#DejaVuSans-110"/>
      <use x="296.345703" xlink:href="#DejaVuSans-97"/>
      <use x="357.625" xlink:href="#DejaVuSans-108"/>
      <use x="385.408203" xlink:href="#DejaVuSans-32"/>
      <use x="417.195312" xlink:href="#DejaVuSans-114"/>
      <use x="456.058594" xlink:href="#DejaVuSans-101"/>
      <use x="517.582031" xlink:href="#DejaVuSans-115"/>
      <use x="569.681641" xlink:href="#DejaVuSans-112"/>
      <use x="633.158203" xlink:href="#DejaVuSans-111"/>
      <use x="694.339844" xlink:href="#DejaVuSans-110"/>
      <use x="757.71875" xlink:href="#DejaVuSans-115"/>
      <use x="809.818359" xlink:href="#DejaVuSans-101"/>
     </g>
    </g>
   </g>
   <g id="matplotlib.axis_4">
    <g id="ytick_9">
     <g id="line2d_19">
      <g>
       <use style="stroke:#000000;stroke-width:0.8;" x="341.02375" xlink:href="#m28a66ad7fa" y="258.84327"/>
      </g>
     </g>
     <g id="text_21">
      <!-- 0.00 -->
      <g transform="translate(311.758125 262.642489)scale(0.1 -0.1)">
       <use xlink:href="#DejaVuSans-48"/>
       <use x="63.623047" xlink:href="#DejaVuSans-46"/>
       <use x="95.410156" xlink:href="#DejaVuSans-48"/>
       <use x="159.033203" xlink:href="#DejaVuSans-48"/>
      </g>
     </g>
    </g>
    <g id="ytick_10">
     <g id="line2d_20">
      <g>
       <use style="stroke:#000000;stroke-width:0.8;" x="341.02375" xlink:href="#m28a66ad7fa" y="227.306584"/>
      </g>
     </g>
     <g id="text_22">
      <!-- 0.02 -->
      <g transform="translate(311.758125 231.105803)scale(0.1 -0.1)">
       <use xlink:href="#DejaVuSans-48"/>
       <use x="63.623047" xlink:href="#DejaVuSans-46"/>
       <use x="95.410156" xlink:href="#DejaVuSans-48"/>
       <use x="159.033203" xlink:href="#DejaVuSans-50"/>
      </g>
     </g>
    </g>
    <g id="ytick_11">
     <g id="line2d_21">
      <g>
       <use style="stroke:#000000;stroke-width:0.8;" x="341.02375" xlink:href="#m28a66ad7fa" y="195.769898"/>
      </g>
     </g>
     <g id="text_23">
      <!-- 0.04 -->
      <g transform="translate(311.758125 199.569117)scale(0.1 -0.1)">
       <use xlink:href="#DejaVuSans-48"/>
       <use x="63.623047" xlink:href="#DejaVuSans-46"/>
       <use x="95.410156" xlink:href="#DejaVuSans-48"/>
       <use x="159.033203" xlink:href="#DejaVuSans-52"/>
      </g>
     </g>
    </g>
    <g id="ytick_12">
     <g id="line2d_22">
      <g>
       <use style="stroke:#000000;stroke-width:0.8;" x="341.02375" xlink:href="#m28a66ad7fa" y="164.233212"/>
      </g>
     </g>
     <g id="text_24">
      <!-- 0.06 -->
      <g transform="translate(311.758125 168.032431)scale(0.1 -0.1)">
       <use xlink:href="#DejaVuSans-48"/>
       <use x="63.623047" xlink:href="#DejaVuSans-46"/>
       <use x="95.410156" xlink:href="#DejaVuSans-48"/>
       <use x="159.033203" xlink:href="#DejaVuSans-54"/>
      </g>
     </g>
    </g>
    <g id="ytick_13">
     <g id="line2d_23">
      <g>
       <use style="stroke:#000000;stroke-width:0.8;" x="341.02375" xlink:href="#m28a66ad7fa" y="132.696526"/>
      </g>
     </g>
     <g id="text_25">
      <!-- 0.08 -->
      <g transform="translate(311.758125 136.495745)scale(0.1 -0.1)">
       <use xlink:href="#DejaVuSans-48"/>
       <use x="63.623047" xlink:href="#DejaVuSans-46"/>
       <use x="95.410156" xlink:href="#DejaVuSans-48"/>
       <use x="159.033203" xlink:href="#DejaVuSans-56"/>
      </g>
     </g>
    </g>
    <g id="ytick_14">
     <g id="line2d_24">
      <g>
       <use style="stroke:#000000;stroke-width:0.8;" x="341.02375" xlink:href="#m28a66ad7fa" y="101.15984"/>
      </g>
     </g>
     <g id="text_26">
      <!-- 0.10 -->
      <g transform="translate(311.758125 104.959059)scale(0.1 -0.1)">
       <use xlink:href="#DejaVuSans-48"/>
       <use x="63.623047" xlink:href="#DejaVuSans-46"/>
       <use x="95.410156" xlink:href="#DejaVuSans-49"/>
       <use x="159.033203" xlink:href="#DejaVuSans-48"/>
      </g>
     </g>
    </g>
    <g id="ytick_15">
     <g id="line2d_25">
      <g>
       <use style="stroke:#000000;stroke-width:0.8;" x="341.02375" xlink:href="#m28a66ad7fa" y="69.623154"/>
      </g>
     </g>
     <g id="text_27">
      <!-- 0.12 -->
      <g transform="translate(311.758125 73.422373)scale(0.1 -0.1)">
       <use xlink:href="#DejaVuSans-48"/>
       <use x="63.623047" xlink:href="#DejaVuSans-46"/>
       <use x="95.410156" xlink:href="#DejaVuSans-49"/>
       <use x="159.033203" xlink:href="#DejaVuSans-50"/>
      </g>
     </g>
    </g>
    <g id="ytick_16">
     <g id="line2d_26">
      <g>
       <use style="stroke:#000000;stroke-width:0.8;" x="341.02375" xlink:href="#m28a66ad7fa" y="38.086468"/>
      </g>
     </g>
     <g id="text_28">
      <!-- 0.14 -->
      <g transform="translate(311.758125 41.885687)scale(0.1 -0.1)">
       <use xlink:href="#DejaVuSans-48"/>
       <use x="63.623047" xlink:href="#DejaVuSans-46"/>
       <use x="95.410156" xlink:href="#DejaVuSans-49"/>
       <use x="159.033203" xlink:href="#DejaVuSans-52"/>
      </g>
     </g>
    </g>
    <g id="text_29">
     <!-- Probability -->
     <g transform="translate(305.678438 167.009604)rotate(-90)scale(0.1 -0.1)">
      <use xlink:href="#DejaVuSans-80"/>
      <use x="58.552734" xlink:href="#DejaVuSans-114"/>
      <use x="97.416016" xlink:href="#DejaVuSans-111"/>
      <use x="158.597656" xlink:href="#DejaVuSans-98"/>
      <use x="222.074219" xlink:href="#DejaVuSans-97"/>
      <use x="283.353516" xlink:href="#DejaVuSans-98"/>
      <use x="346.830078" xlink:href="#DejaVuSans-105"/>
      <use x="374.613281" xlink:href="#DejaVuSans-108"/>
      <use x="402.396484" xlink:href="#DejaVuSans-105"/>
      <use x="430.179688" xlink:href="#DejaVuSans-116"/>
      <use x="469.388672" xlink:href="#DejaVuSans-121"/>
     </g>
    </g>
   </g>
   <g id="line2d_27">
    <path clip-path="url(#p4948f460ff)" d="M 351.759012 258.824811 
L 353.927752 258.814956 
L 356.096492 258.800281 
L 358.265232 258.778662 
L 360.433972 258.747156 
L 362.602712 258.701739 
L 364.771451 258.636976 
L 366.940191 258.54563 
L 369.108931 258.418197 
L 371.277671 258.242366 
L 373.446411 258.002425 
L 375.615151 257.67862 
L 377.783891 257.246495 
L 379.95263 256.67626 
L 382.12137 255.932238 
L 384.29011 254.972459 
L 386.45885 253.748486 
L 388.62759 252.205557 
L 390.79633 250.283145 
L 392.965069 247.916028 
L 395.133809 245.035933 
L 397.302549 241.573835 
L 399.471289 237.462899 
L 401.640029 232.642068 
L 403.808769 227.060184 
L 405.977509 220.680509 
L 408.146248 213.485427 
L 410.314988 205.481052 
L 412.483728 196.701413 
L 414.652468 187.211868 
L 416.821208 177.111377 
L 418.989948 166.533315 
L 421.158688 155.644529 
L 423.327427 144.642474 
L 425.496167 133.750347 
L 427.664907 123.210315 
L 429.833647 113.275045 
L 432.002387 104.197936 
L 434.171127 96.22253 
L 436.339867 89.571739 
L 438.508606 84.437526 
L 440.677346 80.971706 
L 442.846086 79.278497 
L 445.014826 79.409315 
L 447.183566 81.360173 
L 449.352306 85.071894 
L 451.521046 90.433083 
L 453.689785 97.285685 
L 455.858525 105.432721 
L 458.027265 114.647683 
L 460.196005 124.684956 
L 462.364745 135.290613 
L 464.533485 146.212913 
L 466.702224 157.211916 
L 468.870964 168.067731 
L 471.039704 178.587025 
L 473.208444 188.607602 
L 475.377184 198.000992 
L 477.545924 206.673119 
L 479.714664 214.563271 
L 481.883403 221.641639 
L 484.052143 227.905769 
L 486.220883 233.376295 
L 488.389623 238.092301 
L 490.558363 242.106631 
L 492.727103 245.481407 
L 494.895843 248.283982 
L 497.064582 250.583439 
L 499.233322 252.44774 
L 501.402062 253.941524 
L 503.570802 255.124546 
L 505.739542 256.050688 
L 507.908282 256.767464 
L 510.077022 257.315927 
L 512.245761 257.730885 
L 514.414501 258.041328 
L 516.583241 258.271002 
L 518.751981 258.439044 
L 520.920721 258.56064 
L 523.089461 258.647664 
L 525.258201 258.709267 
L 527.42694 258.752401 
L 529.59568 258.782276 
L 531.76442 258.802745 
L 533.93316 258.816618 
L 536.1019 258.82592 
L 538.27064 258.83209 
L 540.439379 258.836139 
L 542.608119 258.838768 
L 544.776859 258.840456 
L 546.945599 258.841529 
L 549.114339 258.842204 
L 551.283079 258.842624 
L 553.451819 258.842882 
L 555.620558 258.84304 
L 557.789298 258.843135 
L 559.958038 258.843191 
L 562.126778 258.843225 
L 564.295518 258.843244 
L 566.464258 258.843255 
" style="fill:none;stroke:#1f77b4;stroke-linecap:square;stroke-width:1.5;"/>
   </g>
   <g id="line2d_28">
    <path clip-path="url(#p4948f460ff)" d="M 351.759012 258.84327 
L 353.927752 258.84327 
L 356.096492 258.84327 
L 358.265232 258.84327 
L 360.433972 258.84327 
L 362.602712 258.84327 
L 364.771451 258.84327 
L 366.940191 258.84327 
L 369.108931 258.84327 
L 371.277671 258.843269 
L 373.446411 258.843269 
L 375.615151 258.843268 
L 377.783891 258.843266 
L 379.95263 258.843263 
L 382.12137 258.843257 
L 384.29011 258.843246 
L 386.45885 258.843228 
L 388.62759 258.843197 
L 390.79633 258.843145 
L 392.965069 258.843056 
L 395.133809 258.84291 
L 397.302549 258.842669 
L 399.471289 258.842277 
L 401.640029 258.841646 
L 403.808769 258.840641 
L 405.977509 258.839057 
L 408.146248 258.836588 
L 410.314988 258.832779 
L 412.483728 258.826965 
L 414.652468 258.818188 
L 416.821208 258.805076 
L 418.989948 258.785701 
L 421.158688 258.757378 
L 423.327427 258.716422 
L 425.496167 258.657837 
L 427.664907 258.574948 
L 429.833647 258.458948 
L 432.002387 258.298388 
L 434.171127 258.078591 
L 436.339867 257.781025 
L 438.508606 257.382644 
L 440.677346 256.855242 
L 442.846086 256.164876 
L 445.014826 255.271401 
L 447.183566 254.12823 
L 449.352306 252.68237 
L 451.521046 250.874858 
L 453.689785 248.64167 
L 455.858525 245.9152 
L 458.027265 242.626366 
L 460.196005 238.707368 
L 462.364745 234.0951 
L 464.533485 228.735127 
L 466.702224 222.586114 
L 468.870964 215.624503 
L 471.039704 207.849175 
L 473.208444 199.285795 
L 475.377184 189.99048 
L 477.545924 180.052438 
L 479.714664 169.595227 
L 481.883403 158.776336 
L 484.052143 147.784883 
L 486.220883 136.837321 
L 488.389623 126.171193 
L 490.558363 116.037116 
L 492.727103 106.689333 
L 494.895843 98.375306 
L 497.064582 91.324928 
L 499.233322 85.740003 
L 501.402062 81.784664 
L 503.570802 79.577368 
L 505.739542 79.184998 
L 507.908282 80.619503 
L 510.077022 83.837286 
L 512.245761 88.741414 
L 514.414501 95.18646 
L 516.583241 102.985669 
L 518.751981 111.919938 
L 520.920721 121.748014 
L 523.089461 132.217249 
L 525.258201 143.074247 
L 527.42694 154.074788 
L 529.59568 164.992506 
L 531.76442 175.625926 
L 533.93316 185.803607 
L 536.1019 195.387291 
L 538.27064 204.273112 
L 540.439379 212.39102 
L 542.608119 219.702698 
L 544.776859 226.198286 
L 546.945599 231.892286 
L 549.114339 236.818993 
L 551.283079 241.027788 
L 553.451819 244.578579 
L 555.620558 247.537607 
L 557.789298 249.973781 
L 559.958038 251.955637 
L 562.126778 253.548948 
L 564.295518 254.814991 
L 566.464258 255.809396 
" style="fill:none;stroke:#ff0000;stroke-linecap:square;stroke-width:1.5;"/>
   </g>
   <g id="patch_8">
    <path d="M 341.02375 258.84327 
L 341.02375 22.318125 
" style="fill:none;stroke:#000000;stroke-linecap:square;stroke-linejoin:miter;stroke-width:0.8;"/>
   </g>
   <g id="patch_9">
    <path d="M 577.19952 258.84327 
L 577.19952 22.318125 
" style="fill:none;stroke:#000000;stroke-linecap:square;stroke-linejoin:miter;stroke-width:0.8;"/>
   </g>
   <g id="patch_10">
    <path d="M 341.02375 258.84327 
L 577.19952 258.84327 
" style="fill:none;stroke:#000000;stroke-linecap:square;stroke-linejoin:miter;stroke-width:0.8;"/>
   </g>
   <g id="patch_11">
    <path d="M 341.02375 22.318125 
L 577.19952 22.318125 
" style="fill:none;stroke:#000000;stroke-linecap:square;stroke-linejoin:miter;stroke-width:0.8;"/>
   </g>
   <g id="text_30">
    <!-- Low noise, not much overlap -->
    <g transform="translate(372.69476 16.318125)scale(0.12 -0.12)">
     <defs>
      <path d="M 9.8125 72.90625 
L 19.671875 72.90625 
L 19.671875 8.296875 
L 55.171875 8.296875 
L 55.171875 0 
L 9.8125 0 
z
" id="DejaVuSans-76"/>
      <path d="M 4.203125 54.6875 
L 13.1875 54.6875 
L 24.421875 12.015625 
L 35.59375 54.6875 
L 46.1875 54.6875 
L 57.421875 12.015625 
L 68.609375 54.6875 
L 77.59375 54.6875 
L 63.28125 0 
L 52.6875 0 
L 40.921875 44.828125 
L 29.109375 0 
L 18.5 0 
z
" id="DejaVuSans-119"/>
      <path d="M 52 44.1875 
Q 55.375 50.25 60.0625 53.125 
Q 64.75 56 71.09375 56 
Q 79.640625 56 84.28125 50.015625 
Q 88.921875 44.046875 88.921875 33.015625 
L 88.921875 0 
L 79.890625 0 
L 79.890625 32.71875 
Q 79.890625 40.578125 77.09375 44.375 
Q 74.3125 48.1875 68.609375 48.1875 
Q 61.625 48.1875 57.5625 43.546875 
Q 53.515625 38.921875 53.515625 30.90625 
L 53.515625 0 
L 44.484375 0 
L 44.484375 32.71875 
Q 44.484375 40.625 41.703125 44.40625 
Q 38.921875 48.1875 33.109375 48.1875 
Q 26.21875 48.1875 22.15625 43.53125 
Q 18.109375 38.875 18.109375 30.90625 
L 18.109375 0 
L 9.078125 0 
L 9.078125 54.6875 
L 18.109375 54.6875 
L 18.109375 46.1875 
Q 21.1875 51.21875 25.484375 53.609375 
Q 29.78125 56 35.6875 56 
Q 41.65625 56 45.828125 52.96875 
Q 50 49.953125 52 44.1875 
z
" id="DejaVuSans-109"/>
      <path d="M 8.5 21.578125 
L 8.5 54.6875 
L 17.484375 54.6875 
L 17.484375 21.921875 
Q 17.484375 14.15625 20.5 10.265625 
Q 23.53125 6.390625 29.59375 6.390625 
Q 36.859375 6.390625 41.078125 11.03125 
Q 45.3125 15.671875 45.3125 23.6875 
L 45.3125 54.6875 
L 54.296875 54.6875 
L 54.296875 0 
L 45.3125 0 
L 45.3125 8.40625 
Q 42.046875 3.421875 37.71875 1 
Q 33.40625 -1.421875 27.6875 -1.421875 
Q 18.265625 -1.421875 13.375 4.4375 
Q 8.5 10.296875 8.5 21.578125 
z
M 31.109375 56 
z
" id="DejaVuSans-117"/>
      <path d="M 48.78125 52.59375 
L 48.78125 44.1875 
Q 44.96875 46.296875 41.140625 47.34375 
Q 37.3125 48.390625 33.40625 48.390625 
Q 24.65625 48.390625 19.8125 42.84375 
Q 14.984375 37.3125 14.984375 27.296875 
Q 14.984375 17.28125 19.8125 11.734375 
Q 24.65625 6.203125 33.40625 6.203125 
Q 37.3125 6.203125 41.140625 7.25 
Q 44.96875 8.296875 48.78125 10.40625 
L 48.78125 2.09375 
Q 45.015625 0.34375 40.984375 -0.53125 
Q 36.96875 -1.421875 32.421875 -1.421875 
Q 20.0625 -1.421875 12.78125 6.34375 
Q 5.515625 14.109375 5.515625 27.296875 
Q 5.515625 40.671875 12.859375 48.328125 
Q 20.21875 56 33.015625 56 
Q 37.15625 56 41.109375 55.140625 
Q 45.0625 54.296875 48.78125 52.59375 
z
" id="DejaVuSans-99"/>
     </defs>
     <use xlink:href="#DejaVuSans-76"/>
     <use x="53.962891" xlink:href="#DejaVuSans-111"/>
     <use x="115.144531" xlink:href="#DejaVuSans-119"/>
     <use x="196.931641" xlink:href="#DejaVuSans-32"/>
     <use x="228.71875" xlink:href="#DejaVuSans-110"/>
     <use x="292.097656" xlink:href="#DejaVuSans-111"/>
     <use x="353.279297" xlink:href="#DejaVuSans-105"/>
     <use x="381.0625" xlink:href="#DejaVuSans-115"/>
     <use x="433.162109" xlink:href="#DejaVuSans-101"/>
     <use x="494.685547" xlink:href="#DejaVuSans-44"/>
     <use x="526.472656" xlink:href="#DejaVuSans-32"/>
     <use x="558.259766" xlink:href="#DejaVuSans-110"/>
     <use x="621.638672" xlink:href="#DejaVuSans-111"/>
     <use x="682.820312" xlink:href="#DejaVuSans-116"/>
     <use x="722.029297" xlink:href="#DejaVuSans-32"/>
     <use x="753.816406" xlink:href="#DejaVuSans-109"/>
     <use x="851.228516" xlink:href="#DejaVuSans-117"/>
     <use x="914.607422" xlink:href="#DejaVuSans-99"/>
     <use x="969.587891" xlink:href="#DejaVuSans-104"/>
     <use x="1032.966797" xlink:href="#DejaVuSans-32"/>
     <use x="1064.753906" xlink:href="#DejaVuSans-111"/>
     <use x="1125.935547" xlink:href="#DejaVuSans-118"/>
     <use x="1185.115234" xlink:href="#DejaVuSans-101"/>
     <use x="1246.638672" xlink:href="#DejaVuSans-114"/>
     <use x="1287.751953" xlink:href="#DejaVuSans-108"/>
     <use x="1315.535156" xlink:href="#DejaVuSans-97"/>
     <use x="1376.814453" xlink:href="#DejaVuSans-112"/>
    </g>
   </g>
  </g>
 </g>
 <defs>
  <clipPath id="pd6ca3e421a">
   <rect height="236.525145" width="236.17577" x="50.14375" y="22.318125"/>
  </clipPath>
  <clipPath id="p4948f460ff">
   <rect height="236.525145" width="236.17577" x="341.02375" y="22.318125"/>
  </clipPath>
 </defs>
</svg>
